<svg id="Layer_1" data-name="Layer 1" xmlns="http://www.w3.org/2000/svg" viewBox="0 0 203.92 337.78"><defs><style>.cls-1{fill:#46173a;}.cls-2{fill:#48183a;}.cls-3{fill:#fc9a96;}.cls-4{fill:#292953;}.cls-5{fill:#f68184;}.cls-6{fill:#fb9d98;}.cls-7{fill:#e68b8a;}.cls-8{fill:#fa9995;}.cls-9{fill:#f69794;}.cls-10{fill:#f89894;}.cls-11{fill:#f48f8f;}.cls-12{fill:#f48d8e;}.cls-13{fill:#6f3352;}.cls-14{fill:#d84c64;}.cls-15{fill:#f59794;}.cls-16{fill:#ef6574;}.cls-17{fill:#f55b6d;}</style></defs><title>face</title><path class="cls-1" d="M313.07,359.58a7.67,7.67,0,0,1-.32,4.78c-3.77,1.06-5,5.86-9.34,6.72-.89-3.13.39-6.08-1.23-8.58-1.47-6.75,1.13-13.93-1.1-18.66-2.49-4.15-5.6-3.94-7.45-6.08-.1-1.07-.22-2.32-.33-3.57-.13-1.51.14-3.2-1.7-3.93-41.35,8.4-82.49,9-123.75-2.71v10c-2.27,2.36-5.8,2.27-7.64,7.05-1.27,6.62.55,15.23-.77,23.66-4.78,1.14-7.1-5-11.85-4a3.13,3.13,0,0,0-.52-1.45c-.85-13.29-1.67-26.57-2.56-39.86-.28-4.26-2.16-7.7-5-11-9.1-10.71-10.29-22-3.82-32.33A26.44,26.44,0,0,1,167,268.75c4.66-9,10.59-17.13,21.81-18.76,11.06-1.6,19.73,2.79,26.66,11.63,7.18-6.88,15.18-8.43,24-5.6,10.25-12.68,23-18.71,38.79-14.45,16.63,4.48,24.77,16.6,26.82,33.36,2,.59,3.83,1.05,5.6,1.66C324.66,281.4,330.22,295.87,322,308c-4,5.91-5.32,11.91-5.73,18.68-.61,10.12-1.72,20.2-2.62,30.3A2.29,2.29,0,0,0,313.07,359.58Z" transform="translate(-129.77 -240.22)"/><path class="cls-2" d="M310.67,406.29c5.66,4.13,3.85,10.17,4,15.7.07,3.09-1.39,6-.28,9.31,3.17,9.52-.5,16.66-9.14,22.1-.49,6.15-2,12.25-7.74,15.63.24,16.27-2.34,20.27-15.6,24.92-1.31-.07-2.74.11-3,1.59-1.19,8-6.72,11.49-13.86,12.89-6.8,14-18.35,17.46-32.37,15.67a4.68,4.68,0,0,0-4.28-1.54c-13.21,1.1-22.62-4.6-28.72-16.18-6.66-1.57-11.91-4.63-13.18-12-.34-2-1.74-2.42-3.51-2.2-13.33-5.14-15.91-9.12-15.11-24-4.16-4.11-8.2-8.94-7.63-16.05-8.84-5.86-13.29-13.43-9.11-24.09a4.9,4.9,0,0,0-.08-3.63c-2.88-8.14-1.32-16,1.59-23.78l-.56-3.88c.2-1,.07-1.87-1.1-2.22l.1-.07c0-7-1.52-13.78-2.74-20.61l.61-1.92c4.68,1.76,6.34,6.33,9.82,10-4.21,6.65-1.67,14-2.74,21.08-2.75,1-1,3.32-1.48,5-.1,2.19-1,4.59,1.71,6,.14,4.89-.7,10.08,4.1,13.56,0,1.37-.3,2.84,1.46,3.45,5.29,12.55,13.77,21.06,27.93,22.65,2.57-3.27,4.1-7.05,8.5-7.31,11.5,2,23.7-2.87,35,3.63,2.65-3.06,6.24-3.46,10.13-3.41,6.57.09,13.15-.14,19.72-.24,2.7.66,5.77-.39,8.55,2.19,2.75.82,1.63,4.82,4.33,6.77C291,453.86,298.8,444,304,431l1.66-3.65c1.95-1.59,1.22-3.75,1.21-5.76l0,0c2.13-.73,2-2.4,1.68-4.12A35.49,35.49,0,0,1,310.67,406.29ZM244,460c-4.33-.1-8.49-.81-11.73-4.25-4.9,6.13-11.45,2.85-16.95,4.31-4.34-.19-8.74-1.14-12.93.67-1.67,6.93,2.5,10.66,7.37,13.05,14.54,7.11,29.26,7.24,43.65-.66,4.44-2.43,7.44-6,6.08-11.6a1.62,1.62,0,0,0-2.16-1.49Z" transform="translate(-129.77 -240.22)"/><path class="cls-3" d="M232.68,524.1c14,1.79,25.57-1.71,32.37-15.67,7.14-1.4,12.67-4.85,13.86-12.89.22-1.48,1.65-1.66,3-1.59,0,8.78.41,17.58-.1,26.32-.67,11.58-1.3,23.07-7.46,33.71-12.71,22-46.78,34.06-72.23,13.28-9.24-7.54-16.39-16.7-17.49-29.28,15.3-1,29.92-5.16,44.4-9.9A5.61,5.61,0,0,0,232.68,524.1Z" transform="translate(-129.77 -240.22)"/><path class="cls-4" d="M160.37,427.53c-4.8-3.48-4-8.67-4.1-13.56l-.17-6-.06-5c1.07-7-1.47-14.43,2.74-21.08-3.48-3.7-5.14-8.27-9.82-10L148,370c.29-1.06-.32-1.54-1.2-1.85l.75-3.9c4.75-1,7.07,5.13,11.85,4,1,2.7-.74,6.68,3.72,8,4.26-1.68,8.37-4.07,13.36-4,8.22.21,16.45-.13,24.67.09,12,.31,19.42,7.13,21.24,18.86.48,3-.94,6.36,1.32,9.12,7.74-1.57,7.74-1.57,15.7.06,1.19-1.3.93-2.93,1.06-4.49,1.11-14.16,8.5-21.62,22.37-21.5,12.48.11,25.22-2.17,37.08,3.45,3.26-5.21.93-10.53,2.22-15.37,1.62,2.5.34,5.45,1.23,8.58,4.3-.86,5.57-5.66,9.34-6.72a2.88,2.88,0,0,1,1,.9,6.87,6.87,0,0,1-.31,6.58c-3.06,7.39-2.87,15.42-4.63,23.06a1.11,1.11,0,0,0-.32,1.18c-3.25,7-1,14.36-1.44,21.55l-.12,3.9,0,0c-2.35,1.26-2.63,3.76-3.54,5.88-.64,1.14-1.28,2.28-1.91,3.42-5.16,4.62-11.17,6.19-18.06,6s-13.67-.74-20.46.45c-9.89-.3-17.22-4.53-21.26-13.81q-.9-6.93-1.78-13.85a16.28,16.28,0,0,0-8.55-5.06c-2.71.83-6.13,1.34-8.46,4.8a41.13,41.13,0,0,1-3.84,17c-4.94,5.81-11.33,8.51-18.84,8.79-6.82-.12-13.65-.48-20.46-.3-5.77.16-11.08-.87-15.93-4A7.27,7.27,0,0,0,160.37,427.53Zm129.4,2.92c8.13-1.72,11.39-7.15,11.43-15,0-6.32.1-12.64,0-19-.2-10.82-5.39-16-16.42-16.38-6.63-.2-13.28-.13-19.91,0-13.23.23-17.89,4.85-18.69,18.32,0,.83,0,1.66.05,2.49,0,4.73-.16,9.47,0,14.19.47,10.83,5.56,15.49,16.78,15.63C272,431.18,280.87,431.63,289.77,430.45Zm-73.68-41.32c-2.26-7.39-7.66-10.73-15-11-8.24-.27-16.53-.43-24.76,0-9.55.54-14.27,5.79-14.48,15.32-.16,7-.2,14,0,20.95.23,8,2.38,10.44,10.71,13.34,7.84,2.71,15.85,1.07,23.81,1a18.63,18.63,0,0,0,7.62-.09,2.41,2.41,0,0,0,2.67-1c6.26-1.63,9.16-6,9.34-12.16.15-5.52.84-11.12-.74-16.58.36-1.59,2.16-2.67,1.59-4.57l0-2.79A1.76,1.76,0,0,0,216.09,389.13Z" transform="translate(-129.77 -240.22)"/><path class="cls-5" d="M232.68,524.1a5.61,5.61,0,0,1-3.69,4c-14.48,4.74-29.1,8.86-44.4,9.9-2.47-2.67-1.42-6-1.46-9-.18-12.26-.12-24.52-.14-36.78,1.77-.22,3.17.24,3.51,2.2,1.27,7.36,6.52,10.42,13.18,12,6.1,11.58,15.51,17.28,28.72,16.18A4.68,4.68,0,0,1,232.68,524.1Z" transform="translate(-129.77 -240.22)"/><path class="cls-6" d="M313.41,371.84a6.87,6.87,0,0,0,.31-6.58c8.56-2.55,14.68.83,19.65,8.22,1.24,10.91-.87,20.85-9.69,28.17-4.91,1.5-9.31.76-13.7.53-2.07-1.65-.8-4.12-1.52-6.1a1.11,1.11,0,0,1,.32-1.18h8c2.41-1.86,4.36-3.38,5.08-5.54v-12C319.8,373.77,317.31,371.67,313.41,371.84Z" transform="translate(-129.77 -240.22)"/><path class="cls-6" d="M147.59,364.28l-.75,3.9L148,370l.92,1.88-.61,1.92c-3,.36-6.28-.7-9.1,1.16-3.75,9.53-2.94,14.05,3.82,19.95l8-.5-.1.07a1.68,1.68,0,0,0,1.1,2.22l.56,3.88c-10.12,3.12-18.26-1.27-20.65-11.54-.85-3.65-.71-7.54-2.23-9.92.14-5.2,2.4-8.32,4.35-11.78,3.9-2.43,7.79-5.23,12.95-4.54A3.13,3.13,0,0,1,147.59,364.28Z" transform="translate(-129.77 -240.22)"/><path class="cls-7" d="M308.46,396.08c.72,2-.55,4.45,1.52,6.1l.69,4.11a35.49,35.49,0,0,0-2.09,11.12,2.71,2.71,0,0,1-1.56.22C307.46,410.44,305.21,403.07,308.46,396.08Z" transform="translate(-129.77 -240.22)"/><path class="cls-4" d="M313.07,359.58a2.29,2.29,0,0,1,.6-2.64A2.12,2.12,0,0,1,313.07,359.58Z" transform="translate(-129.77 -240.22)"/><path class="cls-8" d="M302.18,362.5c-1.29,4.84,1,10.16-2.22,15.37-11.86-5.62-24.6-3.34-37.08-3.45-13.87-.12-21.26,7.34-22.37,21.5-.13,1.56.13,3.19-1.06,4.49-8-1.63-8-1.63-15.7-.06-2.26-2.76-.84-6.09-1.32-9.12-1.82-11.73-9.27-18.55-21.24-18.86-8.22-.22-16.45.12-24.67-.09-5-.12-9.1,2.27-13.36,4-4.46-1.28-2.69-5.26-3.72-8,1.32-8.43-.5-17,.77-23.66,1.84-4.78,5.37-4.69,7.64-7.05v-10c41.26,11.71,82.4,11.11,123.75,2.71,1.84.73,1.57,2.42,1.7,3.93.11,1.25.23,2.5.33,3.57,1.85,2.14,5,1.93,7.45,6.08C303.31,348.57,300.71,355.75,302.18,362.5Z" transform="translate(-129.77 -240.22)"/><path class="cls-9" d="M259.53,461.55c1.36,5.64-1.64,9.17-6.08,11.6-14.39,7.9-29.11,7.77-43.65.66-4.87-2.39-9-6.12-7.37-13.05,4.19-1.81,8.59-.86,12.93-.67l.12,3.48c8.65,6.41,18,4.29,27.24,2,.6-.14.91-1.49,1.35-2.29l0-3.27,13.33,0A2.24,2.24,0,0,0,259.53,461.55Z" transform="translate(-129.77 -240.22)"/><path class="cls-10" d="M200.18,435.17c7.51-.28,13.9-3,18.84-8.79.74,2.7-1.29,4.81-1.57,7.27-.47,4.12,1,6.82,5.56,7,4.48,3.59,9.48,1.18,13.25,1.58,8.41-4,5.43-9.6,3.77-15,.13-1.43.07-3,1.62-3.78,4,9.28,11.37,13.51,21.26,13.81l.15,9c-6.57.1-13.15.33-19.72.24-3.89-.05-7.48.35-10.13,3.41-11.25-6.5-23.45-1.66-35-3.63C198.66,442.56,201,439.14,200.18,435.17Z" transform="translate(-129.77 -240.22)"/><path class="cls-11" d="M263.06,446.3l-.15-9c6.79-1.19,13.65-.63,20.46-.45s12.9-1.39,18.06-6L304,431c-5.21,13-13.06,22.89-28.07,24.29-2.7-1.95-1.58-5.95-4.33-6.77C268.83,445.91,265.76,447,263.06,446.3Z" transform="translate(-129.77 -240.22)"/><path class="cls-12" d="M200.18,435.17c.79,4-1.52,7.39-1.92,11.15-4.4.26-5.93,4-8.5,7.31C175.6,452,167.12,443.53,161.83,431l2-.14c4.85,3.16,10.16,4.19,15.93,4C186.53,434.69,193.36,435.05,200.18,435.17Z" transform="translate(-129.77 -240.22)"/><path class="cls-5" d="M151.09,394.44l-8,.5c-6.76-5.9-7.57-10.42-3.82-19.95,2.82-1.86,6.05-.8,9.1-1.16C149.57,380.66,151.1,387.44,151.09,394.44Z" transform="translate(-129.77 -240.22)"/><path class="cls-7" d="M244,460l0,3.27-28.59.27-.12-3.48c5.5-1.46,12,1.82,16.95-4.31C235.55,459.22,239.71,459.93,244,460Z" transform="translate(-129.77 -240.22)"/><path class="cls-13" d="M303.34,427.44c.91-2.12,1.19-4.62,3.54-5.88,0,2,.74,4.17-1.21,5.76Z" transform="translate(-129.77 -240.22)"/><path class="cls-13" d="M156.1,408l.17,6c-2.67-1.38-1.81-3.78-1.71-6l.77.14Z" transform="translate(-129.77 -240.22)"/><path class="cls-7" d="M156.1,408l-.77.12-.77-.14c.48-1.66-1.27-4,1.48-5Z" transform="translate(-129.77 -240.22)"/><path class="cls-14" d="M163.79,430.84l-2,.14c-1.76-.61-1.48-2.08-1.46-3.45A7.27,7.27,0,0,1,163.79,430.84Z" transform="translate(-129.77 -240.22)"/><path class="cls-14" d="M303.34,427.44l2.33-.12L304,431l-2.58-.11C302.06,429.72,302.7,428.58,303.34,427.44Z" transform="translate(-129.77 -240.22)"/><path class="cls-13" d="M307,417.63a2.71,2.71,0,0,0,1.56-.22c.28,1.72.45,3.39-1.68,4.12Z" transform="translate(-129.77 -240.22)"/><path class="cls-5" d="M152.09,396.73a1.68,1.68,0,0,1-1.1-2.22C152.16,394.86,152.29,395.71,152.09,396.73Z" transform="translate(-129.77 -240.22)"/><path class="cls-7" d="M259.53,461.55a2.24,2.24,0,0,1-2.16-1.49A1.62,1.62,0,0,1,259.53,461.55Z" transform="translate(-129.77 -240.22)"/><path class="cls-9" d="M215.29,398.9c1.58,5.46.89,11.06.74,16.58-.18,6.12-3.08,10.53-9.34,12.16a2.22,2.22,0,0,0-2.67,1,18.63,18.63,0,0,1-7.62.09,10.34,10.34,0,0,0-3.94-7.15c-2.9.25-5.05-2.53-7.86-1.92-5.85.22-8.28,5.11-12,8.11-8.33-2.9-10.48-5.38-10.71-13.34-.21-7-.17-14,0-20.95.21-9.53,4.93-14.78,14.48-15.32,8.23-.46,16.52-.3,24.76,0,7.32.24,12.72,3.58,15,11a2,2,0,0,0,.75,2.41c0,.93,0,1.86,0,2.79-3.13,1.46-6.15.1-9.23-.27-4.11-.5-5.36.15-8.69,4.34C204.59,395.8,210,396.83,215.29,398.9Zm-5.91,9.89c-3-.91-4.9.41-5.49,3.25s1,4.6,4.09,5.34c1.6-.57,3.28-1.21,3.52-3.46C213.35,411.15,211.46,409.93,209.38,408.79Z" transform="translate(-129.77 -240.22)"/><path class="cls-15" d="M246.16,398.4c.8-13.47,5.46-18.09,18.69-18.32,6.63-.11,13.28-.18,19.91,0,11,.34,16.22,5.56,16.42,16.38.12,6.32.06,12.64,0,19,0,7.86-3.3,13.29-11.43,15,.43-4.48-2.12-7-6-8.89-3.57,0-7.37-.24-11.12.06-6.16.5-8.18,2.58-9.62,9.09-11.22-.14-16.31-4.8-16.78-15.63-.21-4.72,0-9.46,0-14.19L257.43,399a20.11,20.11,0,0,0,4.44,1.35c1.63.11,3.14,2.59,4.94.37C260.92,395.61,257.89,395.28,246.16,398.4Zm14.25,13.5c-5.46-5.21-5.72-5.18-9.73,1.23,1.06,2.27,2.34,4.34,5.38,4.3C258.59,416.4,260.25,414.73,260.41,411.9Z" transform="translate(-129.77 -240.22)"/><path class="cls-16" d="M241.65,423.51c-1.55.83-1.49,2.35-1.62,3.78H222.81c-3.74,5.22.11,9.19.2,13.39-4.55-.21-6-2.91-5.56-7,.28-2.46,2.31-4.57,1.57-7.27a41.13,41.13,0,0,0,3.84-17c2.33-3.46,5.75-4,8.46-4.8a16.28,16.28,0,0,1,8.55,5.06Q240.76,416.57,241.65,423.51Z" transform="translate(-129.77 -240.22)"/><path class="cls-5" d="M313.41,371.84c3.9-.17,6.39,1.93,8.49,5.48v12c-.72,2.16-2.67,3.68-5.08,5.54h-8C310.54,387.26,310.35,379.23,313.41,371.84Z" transform="translate(-129.77 -240.22)"/><path class="cls-12" d="M263,430.71c1.44-6.51,3.46-8.59,9.62-9.09,3.75-.3,7.55-.06,11.12-.06,3.87,1.91,6.42,4.41,6,8.89C280.87,431.63,272,431.18,263,430.71Z" transform="translate(-129.77 -240.22)"/><path class="cls-7" d="M172.59,427.8c3.73-3,6.16-7.89,12-8.11,2.81-.61,5,2.17,7.86,1.92a10.34,10.34,0,0,1,3.94,7.15C188.44,428.87,180.43,430.51,172.59,427.8Z" transform="translate(-129.77 -240.22)"/><path class="cls-13" d="M246.16,398.4c11.73-3.12,14.76-2.79,20.65,2.27-1.8,2.22-3.31-.26-4.94-.37a20.11,20.11,0,0,1-4.44-1.35l-11.22,1.94Z" transform="translate(-129.77 -240.22)"/><path class="cls-13" d="M215.29,398.9c-5.31-2.07-10.7-3.1-16.33-.5,3.33-4.19,4.58-4.84,8.69-4.34,3.08.37,6.1,1.73,9.23.27C217.45,396.23,215.65,397.31,215.29,398.9Z" transform="translate(-129.77 -240.22)"/><path class="cls-13" d="M216.84,391.54a2,2,0,0,1-.75-2.41A1.76,1.76,0,0,1,216.84,391.54Z" transform="translate(-129.77 -240.22)"/><path class="cls-5" d="M148,370l-1.2-1.85C147.72,368.49,148.33,369,148,370Z" transform="translate(-129.77 -240.22)"/><path class="cls-7" d="M204,428.67a2.22,2.22,0,0,1,2.67-1A2.41,2.41,0,0,1,204,428.67Z" transform="translate(-129.77 -240.22)"/><path class="cls-14" d="M215.54,463.63l28.6.13c-.31,1.41-6.35,3.49-14,4.34C227.63,468.38,217.1,467.37,215.54,463.63Z" transform="translate(-129.77 -240.22)"/><path class="cls-17" d="M223,440.68c-.09-4.2-3.94-8.17-.2-13.39H240c1.66,5.37,4.64,11-3.77,15C232.49,441.86,227.49,444.27,223,440.68Z" transform="translate(-129.77 -240.22)"/><path class="cls-2" d="M211.5,413.92c-.24,2.25-1.92,2.89-3.52,3.46-3-.74-4.69-2.42-4.09-5.34s2.48-4.16,5.49-3.25c-.44,1.34-1.79,2.44-1.1,4.08A4,4,0,0,0,211.5,413.92Z" transform="translate(-129.77 -240.22)"/><path class="cls-2" d="M259.33,413.81c-.28,2.36-2.15,3-3.95,3.62-3.4-.78-5.24-2.53-4.56-5.59s2.76-4.35,6.12-3.4c-.48,1.4.25,2.55,1,4.27C258.93,413.73,258,413.79,259.33,413.81Z" transform="translate(-129.77 -240.22)"/><path class="cls-13" d="M211.5,413.92a4,4,0,0,1-3.22-1.05c-.69-1.64.66-2.74,1.1-4.08C211.46,409.93,213.35,411.15,211.5,413.92Z" transform="translate(-129.77 -240.22)"/><path class="cls-13" d="M259.63,413.92c-1.41,0-2.82-.08-3.86-1.05-.82-1.64.79-2.74,1.31-4.08C259.58,409.93,261.84,411.15,259.63,413.92Z" transform="translate(-129.77 -240.22)"/></svg>