<?xml version="1.0" encoding="utf-8"?>
<!-- Generator: Adobe Illustrator 23.0.0, SVG Export Plug-In . SVG Version: 6.00 Build 0)  -->
<svg version="1.1" id="Layer_1" xmlns="http://www.w3.org/2000/svg" xmlns:xlink="http://www.w3.org/1999/xlink" x="0px" y="0px"
	 viewBox="0 0 612 792" style="enable-background:new 0 0 612 792;" xml:space="preserve">
<style type="text/css">
	.st0{fill:#444444;}
	.st1{fill:#F6DE04;}
	.st2{fill:#232322;}
	.st3{fill:#303030;}
	.st4{fill:#121212;}
	.st5{fill:#232323;}
	.st6{fill:#151515;}
	.st7{fill:#242424;}
	.st8{fill:#2A2A2A;}
	.st9{fill:#050505;}
</style>
<rect x="81.68" y="75.15" class="st0" width="418.37" height="228.25"/>
<rect x="231.93" y="-43.33" transform="matrix(6.123234e-17 -1 1 6.123234e-17 104.5173 483.4966)" class="st1" width="124.15" height="465.64"/>
<g>
	<path class="st2" d="M210.91,235.62c-1.78,0.05-3.03-1.15-3.03-5.44v-21.24c0-15.17-5.55-19.77-21.97-19.77
		c-1.2,0-2.35,0.03-3.45,0.08c4.18,0,5.96,4.83,5.96,18.12v3.07l0.42,22.88c1.25,5.13,5.96,7.74,14.44,7.74
		c8.99,0,12.87-3.56,13.39-16.12C216.66,224.94,214.97,235.49,210.91,235.62z M182.45,189.24
		C182.27,189.24,182.46,189.66,182.45,189.24L182.45,189.24z"/>
	<path class="st2" d="M183.12,189.22c0,0-17.42-0.2-18.77,9.74c-1.35,9.94,6,12.26,9.99,11.68c3.99-0.58,6.41-4.08,5.57-8.08
		C179.08,198.56,176.83,191.21,183.12,189.22z"/>
	<path class="st2" d="M188.37,215.42c0,0-19.78-0.89-24.19,4.92c-4.41,5.81-3.5,18.26,7.01,20.19c10.51,1.94,9.84-9.33,9.62-13.55
		C180.59,222.76,180.28,216.72,188.37,215.42z"/>
</g>
<g>
	<path class="st2" d="M283.51,213.9c0.61-0.15,1.55-2.14,1.82-2.68c0.45-0.92,0.77-1.9,0.8-2.93c0.16-4.68-4.52-8.17-2.62-13.1
		c0.77-2,2.53-3.62,4.61-4.11c6.39-1.51,8.5,5.51,7.42,10.32c-1.27,5.63-5.56,10.51-11.1,12.24
		C284.13,213.74,283.82,213.83,283.51,213.9z"/>
	<path class="st2" d="M281.35,231.84c-2.79-10.27-7.11-25.99-9.47-34.54c-0.98-3.58-4.22-6.04-7.93-6.04H248.1
		c2.44,1.19,4.22,3.42,4.85,6.06l3.09,11.63l9.1,32.11h10.81h7.87h6.89C286.16,239.89,282.58,236.38,281.35,231.84z"/>
	<path class="st2" d="M247.84,231.7l-1.51-5.68V226l-7.73-28.67c-0.96-3.58-4.22-6.08-7.94-6.08H212l0.77,0.3
		c2.5,1.01,4.42,3.07,5.26,5.64l14.18,43.86h10.51h3.51h4.1h7.14l-0.14-0.03C252.7,239.88,249.06,236.31,247.84,231.7z"/>
</g>
<g>
	<path class="st2" d="M325.8,234.95v-37.23c0-3.57-2.89-6.46-6.46-6.46h-18.75l1.05,0.34c2.8,0.92,4.69,3.53,4.69,6.48v36.14
		c0,2.95-1.89,5.56-4.69,6.48l-1.05,0.34h28.98l0,0C327.26,239.9,325.8,237.54,325.8,234.95z M390.74,240.67
		c-2.79-0.9-4.69-3.5-4.69-6.43v-26.55c0-12.66-6.27-17.48-15.36-17.48c-3.81,0-6.76,1-9.06,2.5c1.59,0.63,4.45,2.9,4.7,6.58
		c0,0.05,0.02,0.09,0.02,0.12c0.1,0.86,0.17,1.87,0.21,3.09c0.03,0.8,0.05,1.69,0.05,2.67v29.87c0,2.53-1.42,4.85-3.67,6.01l0,0
		h28.98L390.74,240.67z M355.94,214.25l-0.14-10.2c-0.03-2.48-0.56-4.97-1.82-7.11c-2.74-4.69-7.66-6.73-13.43-6.73
		c-4.12,0-7.11,1-9.31,2.55c2.01,0.51,3.21,1.83,3.95,3.25c0,0.02,0,0.02,0.02,0.03c0.37,0.47,0.65,1.22,0.84,2.39
		c0.03,0.21,0.09,0.4,0.1,0.58c0.03,0.14,0.05,0.26,0.05,0.37c0.02,0.05,0.02,0.09,0.02,0.12c0.02,0.14,0.03,0.26,0.03,0.37
		c0.03,0.23,0.03,0.35,0.03,0.35c0.1,1.29,0.17,2.92,0.17,4.96v29.87c0,2.53-1.42,4.85-3.67,6.01l0,0h26.89l-0.03-0.02
		c-2.28-1.15-3.72-3.48-3.72-6.04V214.25z"/>
	<path class="st2" d="M366.57,202.47l-0.02,0.03c-0.03-1.22-0.1-2.23-0.21-3.09C366.64,201.13,366.57,202.47,366.57,202.47z"/>
</g>
<g>
	<path class="st2" d="M423.66,233.15v-31.86c0-5.54-4.49-10.02-10.02-10.02h-15.61l2.05,0.63c2.45,0.75,4.13,3.01,4.13,5.58v35.72
		c0,3.57-2.3,6.74-5.69,7.85l-0.07,0.02h31.08l-0.13-0.04C425.98,239.91,423.66,236.73,423.66,233.15z"/>
	<circle class="st2" cx="413.78" cy="174.31" r="9.72"/>
</g>
<g>
	<path class="st2" d="M501.97,239.86c-0.9-0.45-1.63-1.17-2.1-2.06l-14.67-28.07c-2.13-4.09-7.47-5.15-11.02-2.22l-6.76,5.73
		l0.84,1.66l0.16,0.31l9.4,19.3c1.22,2.51,0.04,5.52-2.55,6.54l0,0h29.09L501.97,239.86z M462.79,235.73v-64.47
		c0-4.79-3.88-8.66-8.66-8.66h-16.96l0.88,0.27c3.14,0.96,5.28,3.86,5.28,7.14v65.53c0,2.17-1.39,4.1-3.46,4.77l-2.29,0.75h30.01
		l-1.62-0.64C464.05,239.65,462.79,237.8,462.79,235.73z"/>
	<path class="st2" d="M479.3,201.82c0.63,0.05,2.14-1.55,2.57-1.98c0.72-0.73,1.32-1.56,1.68-2.53c1.62-4.4-1.74-9.17,1.61-13.26
		c1.36-1.66,3.53-2.65,5.67-2.46c6.54,0.56,6.35,7.9,3.82,12.12c-2.97,4.96-8.57,8.24-14.37,8.15
		C479.95,201.86,479.63,201.85,479.3,201.82z"/>
</g>
<g>
	<g>
		<path d="M135.69,235.27c-2.78,1.07-5.54,2.2-8.35,3.21c-10.82,3.86-20.84,2.06-29.72-4.61c-4.97-3.73-9.29-8.22-14.7-13.09
			c5-4.15,9.46-7.85,13.92-11.55c4.38-0.86,6.63,1.42,8.04,4.93c1.12,2.62,0.61,5.67,2.63,8.75c5.16,1.9,10.29,6.67,16.94,1.92
			c2.36-1.7,5.07-3.04,6.58-5.65c2.3-4,2.38-9.35,7.74-11.48c4.16-1.11,6.99,0.32,8.6,4.08c1.22,6.4-3.06,11.33-5.02,16.88
			C142.17,232.71,140.82,235.71,135.69,235.27z"/>
		<path class="st3" d="M90.65,174.72c-0.7-5.07,3.62-8.56,4.58-13.11c0.57-3.6,2.75-5.69,6.54-6.26c4.22-1.55,8.07-4.05,12.67-4.63
			c10.73-1.33,20.45,0.41,28.11,8.41c2.81,2.94,5.67,5.82,8.5,8.73c-2.83,4.24-6.54,6.34-11.89,4.43c-1.04-0.42-2.1-0.83-3.16-1.2
			c-1.04-0.31-2.05-0.72-3.02-1.2c-6.4-4.25-12.94-7.78-20.97-3.7c-1.87,1.55-3.82,3.03-5.37,4.9c-2.24,2.7-3.25,6.49-7.4,7.48
			C95.36,179.36,92.93,177.18,90.65,174.72z"/>
		<path class="st4" d="M103.34,168.57c1.39-2.33,3.21-4.24,5.83-5.36c11.33-0.05,15.81,8.91,22.27,15.28
			c2.6,2.02,4.17,4.5,3.86,7.82c1.84,3.91,6.5,5.88,7.74,10.19c-1.51,3.76-4.97,4.25-8.53,4.58c-2.99-0.19-5.45-1.5-7.63-3.35
			c-3.57-3.04-7.09-6.14-9.83-9.93C110.92,182.4,103.24,177.99,103.34,168.57z"/>
		<path class="st5" d="M102.35,205.08c-1.67-3.98-6.27-6.03-7.31-10.43c-0.97-4.63,2.18-5.98,5.84-6.94
			c6.28-0.57,8.26,5.18,12.31,7.9c2.39,1.39,3.51,3.95,5.51,5.7c4.69,4.32,10.75,7.72,10.83,15.16c-0.52,3.74-2.79,6-6.39,7.15
			c-1.13,0.29-2.29,0.34-3.46,0.24c-1.73-0.19-3.34-0.73-4.88-1.51c-3.51-1.77-5.87-4.71-8.15-7.73
			C104.94,211.56,101.54,209.22,102.35,205.08z"/>
		<path class="st6" d="M87.97,156.61c-1.12,0.91-2.25,1.83-4.1,3.34c-2.38-7.3-4.55-13.96-7.21-22.15c8.43,2.79,15.86,3.4,22.25,7.3
			c0.15,0.09,0.12,0.67-0.02,0.93c-0.16,0.3-0.55,0.49-0.83,0.72C94.64,150,94.96,156.68,87.97,156.61z"/>
		<path class="st7" d="M135.31,186.3c-2.68-1.38-4.73-3.38-6.38-5.78c-1.42-7.75,3.88-10.5,10.25-12.46
			c1.22,0.68,2.44,1.36,3.5,1.94c2.93-0.74,5.66-1.43,8.38-2.11c0.64,0.76,1.28,1.52,2.61,3.09
			C147.44,176.16,141.37,181.23,135.31,186.3z"/>
		<path class="st8" d="M101.74,190.04c-2.41,1.39-5.49,1.84-6.98,4.52c-5.4-5.85-5.24-12.75-4.12-19.83
			c3.12-0.34,5.9,0.48,8.44,2.17C105.33,180.3,105.12,184.88,101.74,190.04z"/>
		<path d="M135.69,235.27c2.22-2.21,4.44-4.41,6.65-6.62c4.26,4.42,8.52,8.84,12.98,13.45
			C146.05,245.75,145.42,245.51,135.69,235.27z"/>
		<path d="M134.26,198.59c2.7-1.55,5.6-2.37,8.79-2.1c3.58,4.55,5.43,9.54,4.31,15.29c-2.61-1.64-5.43-2.49-8.58-2.12
			C133.07,207.51,130.8,204.1,134.26,198.59z"/>
		<path d="M87.97,156.61c3.69-2.98,5.42-7.78,10.08-9.86c-2.57,4.36,1.17,6.25,3.72,8.61c-1.67,2.56-3.88,4.63-6.54,6.26
			C93.13,159.53,91.22,157.2,87.97,156.61z"/>
		<path d="M102.13,204.84c2.83,1.33,4.59,3.73,6.55,5.94c-0.32,4.03-1.96,6.56-6.82,5.43c0.15-3.51-1.88-5.6-5.02-6.96
			C98.06,207.18,99.81,205.69,102.13,204.84z"/>
		<path d="M134.4,198.12c1.5,3.69,3.01,7.38,4.51,11.07c-0.49,4.37-1.2,8.68-4.14,12.3c-5.31,0.87-6.32-2.65-7.18-6.33
			c-3.8-4.13-7.6-8.26-11.39-12.39c0.25-8.43,4.66-11.33,13.09-8.89C130.99,195.3,132.7,196.71,134.4,198.12z"/>
		<path d="M101.86,216.2c2.27-1.81,4.55-3.62,6.82-5.43c3.12,2.52,6.24,5.03,9.36,7.55c0.62,0.8,1.37,1.45,2.27,1.94l0.16,0.15
			c2.7,2.29,7.79,2.48,7.35,7.54c-11.9,6.18-19.51,4.44-29.8-6.81C97.88,218.51,101.09,218.2,101.86,216.2z"/>
		<path class="st9" d="M127.82,227.95c-2.62-2.37-5.88-4.16-7.35-7.54c3.68,0.18,5.72-1.78,6.98-4.79c2.39,2.11,4.79,4.22,7.18,6.33
			C132.98,224.58,130.87,226.75,127.82,227.95z"/>
		<path d="M139.18,168.05c-0.87,6.05-6.95,8.22-10.25,12.46c-6.59-5.77-13.17-11.54-19.76-17.31c10.2-7.33,19.16-3.52,27.83,2.81
			c0.22,0.87,0.79,1.4,1.71,1.6L139.18,168.05z"/>
		<path d="M101.74,190.04c-1.95-4.19-2.35-8.66-2.66-13.14c0.86-3.03,1.79-6.04,4.26-8.33c5.66,5.82,11.32,11.63,16.98,17.45
			c2.53,8.2-2.72,10.74-9.7,12.01C106.72,196.31,104.83,192.58,101.74,190.04z"/>
		<path class="st7" d="M138.72,167.62c-1.02-0.09-1.64-0.59-1.71-1.6C137.58,166.55,138.15,167.08,138.72,167.62z"/>
		<path d="M110.62,198.04c0.56-3.46,3.34-5.38,5.97-7.2c1.87-1.29,3.51-2.49,3.72-4.81c2.94,2.78,5.88,5.55,8.82,8.33
			c-6.37,0.3-8.21,6.61-13.09,8.89C114.24,201.5,112.43,199.77,110.62,198.04z"/>
		<path class="st9" d="M120.31,220.26c-1.29-0.09-1.99-0.8-2.27-1.94C119.22,218.52,119.99,219.15,120.31,220.26z"/>
	</g>
	<path class="st1" d="M109.36,163.98c0,0,13.08-13.32,28.73,4.29c0,0,2.47,2.5-9.52,12.54L109.36,163.98z"/>
	<path class="st1" d="M97.58,186.16"/>
	<path class="st1" d="M103.7,169.19l16.51,16.97c-0.85,5.05-8.96,6.11-9.43,11.68c0,0-11.91-4.84-10.92-17.04
		C99.85,180.81,96.94,175.36,103.7,169.19z"/>
	<path class="st1" d="M128.78,194.25c8.93,5.7,13.52,16.95,5.34,26.84l-18.06-18.2C116.05,202.89,124.62,191.6,128.78,194.25z"/>
	<path class="st1" d="M108.88,210.22l18.61,16.7c0,0-6.88,6.12-18.14,2c0,0-8.3-4.14-10.83-8.63
		C98.53,220.3,97.36,219.03,108.88,210.22z"/>
</g>
</svg>
