<svg id="Layer_1" data-name="Layer 1" xmlns="http://www.w3.org/2000/svg" viewBox="0 0 1057 921"><defs><style>.cls-1{fill:#312b39;}.cls-2{fill:#b6b6b7;}.cls-3{fill:#86838c;}.cls-4{fill:#94919b;}</style></defs><title>Untitled-8</title><path class="cls-1" d="M863-8s152.93,37.35,38.49,280.75,72.83,340,236.16,231.81S1372.77,623,1376.94,723.49s150.85,349,271.53,38.63c0,0,13.52-36.06,104-41.21s160.22-79.84,139.41-114.61c0,0,5.2-28.34-96.75-124.92s-113.4-208.63,26-307.8l98.83-85V-8Z" transform="translate(-863 8)"/><path class="cls-2" d="M1030.07,168.2V452.41a1.5,1.5,0,0,0,3,0V168.2a1.5,1.5,0,0,0-3,0Z" transform="translate(-863 8)"/><path class="cls-2" d="M1058.68,168l11.62,11.62a1.5,1.5,0,0,0,2.12-2.12l-11.62-11.62a1.5,1.5,0,0,0-2.12,2.12Z" transform="translate(-863 8)"/><path class="cls-2" d="M1069.94,164.94,1060,177.43c-1.18,1.5.93,3.64,2.13,2.13l9.9-12.5c1.19-1.5-.92-3.63-2.12-2.12Z" transform="translate(-863 8)"/><path class="cls-1" d="M1059.57,199.8c8.6-4.55,18.85-.24,27.92-3.35,1.81-.63,1-3.53-.8-2.9-9.38,3.23-19.59-1.13-28.64,3.66-1.7.9-.19,3.49,1.52,2.59Z" transform="translate(-863 8)"/><path class="cls-3" d="M1060.37,200h28.8a1.5,1.5,0,0,0,0-3h-28.8a1.5,1.5,0,0,0,0,3Z" transform="translate(-863 8)"/><path class="cls-3" d="M1099,200.26h22.74a1.5,1.5,0,0,0,0-3H1099a1.5,1.5,0,0,0,0,3Z" transform="translate(-863 8)"/><path class="cls-4" d="M1059.61,225h148.55a1.5,1.5,0,0,0,0-3H1059.61a1.5,1.5,0,0,0,0,3Z" transform="translate(-863 8)"/><path class="cls-4" d="M1061.13,252.31h48.5a1.5,1.5,0,0,0,0-3h-48.5a1.5,1.5,0,0,0,0,3Z" transform="translate(-863 8)"/><path class="cls-4" d="M1125.55,252.31h56.08a1.5,1.5,0,0,0,0-3h-56.08a1.5,1.5,0,0,0,0,3Z" transform="translate(-863 8)"/><path class="cls-4" d="M1061.13,282.63h72a1.5,1.5,0,0,0,0-3h-72a1.5,1.5,0,0,0,0,3Z" transform="translate(-863 8)"/><path class="cls-4" d="M1146,283.38h28.8a1.5,1.5,0,0,0,0-3H1146a1.5,1.5,0,0,0,0,3Z" transform="translate(-863 8)"/><path class="cls-4" d="M1061.13,311.43h41.68a1.5,1.5,0,0,0,0-3h-41.68a1.5,1.5,0,0,0,0,3Z" transform="translate(-863 8)"/><path class="cls-4" d="M1117.21,310.67h38.65a1.5,1.5,0,0,0,0-3h-38.65a1.5,1.5,0,0,0,0,3Z" transform="translate(-863 8)"/><path class="cls-4" d="M1171,310.67h19.71a1.5,1.5,0,0,0,0-3H1171a1.5,1.5,0,0,0,0,3Z" transform="translate(-863 8)"/><path class="cls-4" d="M1059.61,341.74h166.2v-3h-19.17a1.5,1.5,0,0,0,0,3h19.17a1.5,1.5,0,0,0,0-3h-166.2a1.5,1.5,0,0,0,0,3Z" transform="translate(-863 8)"/><path class="cls-4" d="M1240,341h26.53a1.5,1.5,0,0,0,0-3H1240a1.5,1.5,0,0,0,0,3Z" transform="translate(-863 8)"/><path class="cls-4" d="M1060.37,377.36h19a1.5,1.5,0,0,0,0-3h-19a1.5,1.5,0,0,0,0,3Z" transform="translate(-863 8)"/><path class="cls-4" d="M1089.93,377.36h89.43a1.5,1.5,0,0,0,0-3h-89.43a1.5,1.5,0,0,0,0,3Z" transform="translate(-863 8)"/><path class="cls-4" d="M1060.37,414.5h51.54a1.5,1.5,0,0,0,0-3h-51.54a1.5,1.5,0,0,0,0,3Z" transform="translate(-863 8)"/><path class="cls-4" d="M1123.27,414.5h10.61a1.5,1.5,0,0,0,0-3h-10.61a1.5,1.5,0,0,0,0,3Z" transform="translate(-863 8)"/><path class="cls-4" d="M1146.77,413.74h59.87a1.5,1.5,0,0,0,0-3h-59.87a1.5,1.5,0,0,0,0,3Z" transform="translate(-863 8)"/></svg>