<svg xmlns="http://www.w3.org/2000/svg" viewBox="0 0 527.32 474.9"><defs><style>.cls-1{fill:#e9f3ec;}.cls-2{fill:#9c786c;}.cls-3{fill:#009d9a;}.cls-4{fill:#936350;}.cls-5{fill:#9b786b;}.cls-6{fill:#936351;}.cls-7{fill:#039e9c;}.cls-8{fill:#009d9b;}.cls-9{fill:#069d9b;}.cls-10{fill:#17838f;}.cls-11{fill:#079d9a;}.cls-12{fill:#102f4d;}.cls-13{fill:#946350;}.cls-14{fill:#0b2032;}.cls-15{fill:#d54034;}.cls-16{fill:#102f4e;}.cls-17{fill:#68b8c2;}.cls-18{fill:#8ecdc9;}.cls-19{fill:#8eccc9;}.cls-20{fill:#1e7f8b;}.cls-21{fill:#f49e7b;}.cls-22{fill:#68b8c3;}.cls-23{fill:#1e7f8c;}.cls-24{fill:#d54035;}.cls-25{fill:#d64135;}.cls-26{fill:#1f7f8c;}.cls-27{fill:#049597;}.cls-28{fill:#089d9a;}.cls-29{fill:#65a2ad;}.cls-30{fill:#d3dfdf;}.cls-31{fill:#e7ebe6;}.cls-32{fill:#a2b3bc;}.cls-33{fill:#728292;}.cls-34{fill:#5b7080;}.cls-35{fill:#1f7f8b;}.cls-36{fill:#e8f3ed;}.cls-37{fill:#11304f;}.cls-38{fill:#e0e7e4;}.cls-39{fill:#188491;}.cls-40{fill:#039d9b;}.cls-41{fill:#66a1ac;}.cls-42{fill:#e7f1ec;}.cls-43{fill:#d3e6eb;}.cls-44{fill:#926350;}.cls-45{fill:#578aa3;}.cls-46{fill:#926250;}.cls-47{fill:#0e2f4e;}.cls-48{fill:#8ccdc9;}.cls-49{fill:#67a2ad;}.cls-50{fill:#eb5233;}.cls-51{fill:#f29e7c;}.cls-52{fill:#d64034;}.cls-53{fill:#e37a5d;}.cls-54{fill:#e0785e;}.cls-55{fill:#4c7c96;}.cls-56{fill:#43718c;}.cls-57{fill:#e2eeea;}.cls-58{fill:#f49e7c;}.cls-59{fill:#e2ebe6;}.cls-60{fill:#d04437;}.cls-61{fill:#fff;}.cls-62{fill:#8dccc9;}.cls-63{fill:#67a3ad;}.cls-64{fill:#66a2ad;}.cls-65{fill:#f19e7c;}.cls-66{fill:#eb9a7a;}.cls-67{fill:#b0c9c8;}.cls-68{fill:#c5d1ce;}.cls-69{fill:#7daaa9;}.cls-70{fill:#b6cecc;}.cls-71{fill:#181819;}.cls-72{fill:#f39693;}.cls-73{fill:#292953;}.cls-74{fill:#f08081;}.cls-75{fill:#f39995;}.cls-76{fill:#e28786;}.cls-77{fill:#f39592;}.cls-78{fill:#f39391;}.cls-79{fill:#f39491;}.cls-80{fill:#f28d8d;}.cls-81{fill:#f28b8b;}.cls-82{fill:#6f3352;}.cls-83{fill:#d54c64;}.cls-84{fill:#ec6574;}.cls-85{fill:#ee5c6e;}.cls-86{fill:#48183a;}</style></defs><title>middleMan</title><g id="Layer_2" data-name="Layer 2"><g id="Layer_1_copy" data-name="Layer 1 copy"><path class="cls-1" d="M32,223.53c1.78-14.26,2.55-28.59,6.08-42.69a260.66,260.66,0,0,1,13.38-40.5A229.06,229.06,0,0,1,97.93,71a239,239,0,0,1,56.21-42.65A227.35,227.35,0,0,1,232.89,2.25,232.41,232.41,0,0,1,279.16.42,244.05,244.05,0,0,1,336.53,11a223.35,223.35,0,0,1,70.89,36.79c25.88,19.9,47.09,44,62.82,72.57A228.21,228.21,0,0,1,495,189,237,237,0,0,1,499,234.59c0,2.07.67,4.14,1,6.21.07,2.5-1.29,3.52-3.64,3.51-1.79-.86-1.79-2.54-1.94-4.16-.26-.72.47-2.3-.6-2.12-5.64,1-7.44-1.17-6.3-6.65.58-2.84-1.8-3-3.75-2.94-1.78.09-3.39.54-3.17,3.13.52,6.08.08,6.49-6.19,7.17-3.66-.22-4.58-2.41-4-5.62.3-1.58,1.53-3.28-.83-4.33q-4.9-4.84-9.61-9.88c-2.8-3-5.21-6.33-4.37-10.87,2.25-3.66,1.5-7-1.07-10.19a9.74,9.74,0,0,1-.52-3.3c.05-5.87,4.24-4.56,7.73-4.48,7.76,0,15.51.34,23.26.49,6.14,2.53,6.63,3.59,4.35,9.51-.25.66-.61,1.28,0,1.91a.83.83,0,0,0,1,.16,2,2,0,0,0,1.26-2.11,73.25,73.25,0,0,0-2.75-16.51c-2-1.24-4.58-1.94-4.69-6.14-2.41,9.14-5.54,11.58-13.83,11.55-5.65,0-11.34-.11-16.24-3.62a3.31,3.31,0,0,1-1.14-1.67c-.21-1.19,0-2.75-1.76-.88a3.26,3.26,0,0,1-1.93.64,8.54,8.54,0,0,1-3-.21,20.47,20.47,0,0,1-3.48-1.29,6.78,6.78,0,0,1-1.19-.88c-.6-.63-1.25-1.51-2.15-1.26-4.89,1.33-9.12-1.5-13.71-2.07a29,29,0,0,1-8.07-8.67c.39-2.42-.07-3.71-2.75-2-2.61.47-5.09-1.42-7.72-.39-1.14.31-2.26.7-3.39,1a10.08,10.08,0,0,1-2.1.45c-4,.88-7.38,7.48-6,11.82.41,1.3,1.3,2.46,1.19,3.93a3.19,3.19,0,0,1-1,2.12c-3.06,1.36-5.33.14-6.32-2.66-1.08-3.1-3.49-4.65-5.83-6.43-1.37-3-1-6.12-.51-9.23.33-1.32,3.42-2.49.23-4-1.6-6.31-2-12.82-3.24-19.19-.9-2.54,1.43-6.3-2.86-7.59-3.51-4.37-6.37-9.2-9.68-13.73.4-2.8-.54-5.43-1.08-8.23-.92,1-1.05,2.57-2.48,3-3.29-.21-4.66-2.77-6.24-5.07-2.34-3.21-4.4-6.78-9.09-6.92-6.66-3.72-13.63-6.87-20.26-10.64-2.93-4.2-7.28-5.6-11.33-3.63a5,5,0,0,1-5-1.06A9.88,9.88,0,0,0,301,88.66a5,5,0,0,1-3.85-.31c-2.32-2.5-4.9-2.41-8-1.39-4.06,1.33-5.76-.08-6.41-4.52,1.16-2.41,3.42-2.78,5.71-3.11,1.95,0,3.81.66,5.75.71a23.62,23.62,0,0,1,8.17,1.25c.55.15,1.08.33,1.61.51,5.37.34,5.37.34,3.8-4.24-2-5.85.94-10.16,7.33-10.24,15.7-.17,31.42,0,47.13-.08,6.34,0,12.68.25,19-.46,4.79-.54,7.47,1.37,7.94,5.64.31,2.75,1.09,4.31,4,4.34s6.15.3,7.34-3.53c.68-2.2,1.29-4.41,3.78-5.4,4.94-2,9.17.38,10.34,5.62.56,2.53-.22,4.88-.41,7.28,1.73,2.28,2.84,1.44,3.68-.74a18.56,18.56,0,0,1-.55-6.3c.45-6.19.27-6.56-5.67-6.48-11.43.17-22.85-.19-34.28-.14-24.31.1-48.62.32-72.93-.11a27.38,27.38,0,0,1-6.89-1.82c-2.5-4.42,1.43-7.36,2.64-10.89.71-2.07,2.68-3.62,3.11-5.93,3.16-5.35,1.12-10.62-.25-15.89a4.15,4.15,0,0,1,2.09-2.25c2-1.3,1.56-2.46-.2-3.52-2.08-1.23-3.86-2.73-3.16-5.44.77-2.91,3.5-2.39,5.65-2.84,2.89-.59,5.82-.88,8.76-1.44-8.77-1.59-17.54-.66-26.32-.23a5.15,5.15,0,0,1-3.87-3.88c-.15-2.85,2.66-3.4,4-5a1.08,1.08,0,0,0-1.51-1C283.4,9.76,277.6,8,272.11,8.9c-2.54.39-4.76-.18-6.28-2.74S262,3.3,259.52,4.77s-5.33,1.62-8.16,1.64c-4.17,0-8.5-.63-11.84,2.9-1.34,1.41-3.52-.59-4.86,1.07-.42.56-.84,1.12-1.3,1.65a20.13,20.13,0,0,0-8.83,8.75c-4.1,6.62-1.34,12.52,1.93,18.36a10.6,10.6,0,0,1,1.19,6c-.47,6.24,1.09,12,3.45,17.71-.71,7.36,1.2,13.31,8,17.49a6.76,6.76,0,0,1,3,7.79c-2.24,1.5-4.78.93-7.22,1.06-26.76,1.41-50.59,9.85-69.17,29.93-11.24,12.14-18.34,26.33-18.27,43.4a9,9,0,0,1-.14,1.79c-.52,8.5-.23,17-.13,25.5,0,7.8.22,15.61-.14,23.4a11.77,11.77,0,0,1-.31,1.87c-1.72,4.34.24,9.11-1.54,13.45-1.94,2.16-4.28,1-6.39.59-13.23-2.32-24.52,1.44-34.29,10.46-1.64,1.52-2.92,4.23-6,3-1.84-3.42-1-7.14-1-10.71,0-4.06-1.26-6.71-5.52-7.32-1.37-1.64-1.88-1.66-4.68-.82-1.62.48-3.64.09-4.33,2.31-1,10.74-.16,21.48-.47,32.2-.07,2.78.43,5.68-1.44,8.16-4.78.77-5.77.07-5.85-5.08-.19-11.82,0-23.65-.09-35.47,0-2.44.49-5-.83-7.24-4.72-3.15-9.56-2.7-14.44-.51-1.75,3.7-.5,7.61-.86,11.4-.24,2.47-.16,5-3.24,5.91a6.2,6.2,0,0,1-4.43-.56c-2.92-2.41-.14-6.61-2.87-9.06-2.1-1-4.32-.5-6.5-.61C38.55,225,35,226.23,32,223.53Z"/><path class="cls-2" d="M475.65,449.74c-12.3,0-24.59,0-36.89,0-2.16,0-4.24.1-5.38-2.23-1.94-1.37-2.17-3.56-2.51-5.6-2.83-17.18-6-34.31-9.06-51.44a8.72,8.72,0,0,1,0-4.7,2.2,2.2,0,0,1,1.43-1.28c19.42-.28,38.84-.13,58.26,0,1.76,0,3.56.17,4.85,1.66q-4,23.72-8.08,47.44C477.39,439,476.53,444.35,475.65,449.74Z"/><path class="cls-3" d="M502.33,333c-1,4.32-4.65,5.84-8.14,7.46-7.82,3.64-8.5,4.63-7.92,13,.27,4-1.61,6.5-4.68,8.76-2.22,1.65-5.61,2.05-6.41,5.41-.24.46-.47,1-1,1.09-9.08,1.5-18.2.68-27.3.29a4,4,0,0,1-2.26-1.28c-4-5.25-5.25-11.48-6-17.8-.46-3.86,1.25-7.17,3.67-10.16,4.6-5.68,3.82-17.45-1.73-22.1A73.93,73.93,0,0,0,426.69,308c-4.39-2.22-4.73-2.1-4.78,2.7-.08,8.28,0,16.56-.06,24.84,0,2.2.49,4.67-1.76,6.3a1.63,1.63,0,0,1-1.47-1c-1.8-7.15-.56-14.41-.84-21.62-.17-4.23-.11-8.47,0-12.71.07-2.29.09-4.65,2.14-6.27,2.42-1.06,4,.84,5.73,1.81,5.81,3.23,11.46,6.73,17.27,10.56-1.65-13.45-3-26.71-6.59-39.59-.4-2.86-.79-5.71.45-8.46,2.23-2,2.16,1.23,3.49,1.54A80,80,0,0,1,450.16,250c.93-1.21,2-3.08,3.77-2,2.1,1.3.69,3.2-.23,4.58-3.52,5.28-7.15,10.48-9.82,16.28-.89,1.94-2,3.83-1.68,6,1.58,10.77,3.39,21.49,5.87,32.34,4-4.69,8.11-9.15,8.13-15.8,0-3.18-.12-6.35.09-9.52.11-1.71-.05-3.82,2.13-4.37,1.86-.48,2.68,1.33,3.76,2.43a12.42,12.42,0,0,1,1.31,1.66c4.09,7.62,8.15,15.25,10.74,23.56a13.68,13.68,0,0,1-.09,9.78c-2.73,6.69-5.31,13.45-7.65,20.29-.51,1.5-1.21,3.29-3.16,3-1.41-.22-1.16-1.93-1.49-3.07-2-6.83-5.85-12.76-9.06-19,4.6,9.45,11.29,18.17,10.23,29.18.61-1.67,2.34-3,4.28-4a87.71,87.71,0,0,1,28.5-9.47C498,331.52,500.4,331.16,502.33,333Z"/><path class="cls-4" d="M13.83,446.45c-.81,4.14-4,3.32-6.85,3.38-3.57.08-2.14-2.77-2.74-4.44q4-33.86,8.07-67.72c3-25.2,6-50.42,9.17-75.59a177.52,177.52,0,0,0,1-21.11c.75-2.48,2.87-1.56,4.4-1.57,7.77-.06,15.55-.09,23.33,0s8.85,1,8.87,8.88c0,2,.65,4.29-1.15,6-5.84,2.07-11.88.74-17.83,1s-6.69.65-7.39,6.5Q26.56,353,20.38,404.22c-.2,1.57-.49,3.16.54,4.58,1.56,1.64,3.59,1.23,5.48,1.24,8.63,0,17.25-.05,25.88.06,2.46,0,5.2-.08,6.13,2.93.88,2.83.1,5.22-2.69,6.68-8.56,1.79-17.23.76-25.84.79-14,.06-11.07.68-12.85,11.22C16.2,436.67,16.91,442,13.83,446.45Z"/><path class="cls-5" d="M57.35,293.82c.12-.14.34-.27.33-.4C57.54,281,57.53,281,45.14,281H22.51c-5.65-.11-11.29-.32-16.94-.29-3.22,0-5.63.2-5.57-4.51.06-4.31,1.67-4.91,5.32-4.75,5.65.24,11.31,0,17,0,5-2.88,10.35-1.12,15.54-1.46,2.23.08,4.46-.11,6.69,0,2.83.32,5.63-.22,8.45-.34,10.13.52,20.27.14,30.4.27,2.61,0,5.26-.24,7.74.9,3,3.07,4.47,6.48,2.41,10.69-5.26,2.27-10.81,1.07-16.21,1.13-14.11.15-11.43-.32-11.89,11.62.48,35.51-.24,71,0,106.53,0,2.4-.67,5,1.28,7.06,1.85,1.44,4,1.1,6.13,1.11,7.26,0,14.51-.09,21.76.06,3.34.07,6.27-.58,8.74-2.91,2.86,3.54,2.4,5.78-1.52,6.75-2.94.73-6,.39-9,.41-6.18,0-12.38.25-18.55-.07-4.87-.26-8.68.64-10.36,5.76,0,8.25-.41,16.53.06,24.75.3,5.31-1.57,7-6.5,6.12-1.77-2.08-1.51-4.62-1.56-7.08-.14-8,.34-15.91-.54-23.84a4.52,4.52,0,0,0,1.85-5.93c-.85-2.17-3-1.25-4.66-1.26-9.64-.09-19.28,0-28.92-.09-1.8,0-3.92.86-5.34-1.13,2.06-1.8,4.6-1.59,7.05-1.61,7.77-.06,15.53,0,23.3,0,6.73,0,7.15-.42,7.16-7.26q.06-49.51,0-99C55.83,299.53,55.26,296.42,57.35,293.82Z"/><path class="cls-6" d="M444.89,367.05c10.08,1.45,20.21.38,30.3.54,5.12,0,10.26.27,15.35-.17,3.86-.33,4.59,1.29,4.21,4.49a26,26,0,0,0,0,2.65c0,3.17.79,6.7-.33,9.44-1.26,3.08-5.59.14-8,2.13q-28.44,0-56.9,0a23.74,23.74,0,0,1-7.27-.84c-5.4,1.69-7.84.3-7.27-4.86.5-4.44-.41-9.28,2.71-13.21,3.56-2.56,7.68-1.73,11.62-1.81a111.74,111.74,0,0,1,12,.16A5.32,5.32,0,0,1,444.89,367.05Z"/><path class="cls-7" d="M38.35,271.31l-16.06.08c-4-2.64-5.48-6.25-5.33-11.15.32-10.73.23-21.48,0-32.22-.07-3.49,1-4.62,4.47-4.37s7-.05,10.55-.12l10.69.37c1.66,1.69,1.52,3.87,1.54,6,.06,10.21,0,20.41,0,30.61C44.31,265.27,42.89,269.1,38.35,271.31Z"/><path class="cls-8" d="M516.91,304.34a8.47,8.47,0,0,1-3.57,5c-7.86,5.13-10.91,12.43-10.31,21.53-6.3,2.26-13.14,1.67-19.5,4.05a122.78,122.78,0,0,0-13.24,5.26c-1.4.71-3,1.57-4.38.09-1.15-1.21-.6-2.63-.13-4,2.51-7.33,5.32-14.54,8.1-21.76a7.16,7.16,0,0,1,3.85-4.2A79,79,0,0,1,516.91,304.34Z"/><path class="cls-3" d="M524.54,273.59c-1.45,3.5-4.44,5.78-6.86,8.51-3.14,3.54-3.89,7.2-1.54,11.5,1.67,3,3.12,6.27,1,9.79-8.45,1.62-17.15.87-25.58,3-3.24.8-6.39,1.83-9.6,2.7-4,1.09-5.63-.3-4.4-4.12,2.12-6.55,5.74-12.46,8.53-18.72.74-1.68,2.51-2.42,4.1-3.18a144.7,144.7,0,0,1,29.38-10.16C521.34,272.46,523.08,272.1,524.54,273.59Z"/><path class="cls-9" d="M514.89,238.56c4.28,2,4.69,5.79,4.18,9.75-.62,4.88.33,8.67,4.72,11.76,4.09,2.88,4.5,7.15,1.9,11.54-9,3-18.39,4.55-27.17,8.25-1.61.68-3.16,1.53-4.82,2.08-1.28.42-2.67,1.48-3.94.25s-.36-2.62.1-3.91a29,29,0,0,1,1.58-3.33c7.11-12.31,13.87-24.84,22.76-36C514.43,238.79,514.66,238.68,514.89,238.56Z"/><path class="cls-10" d="M492.63,274.67c-.84,2.27-1.68,4.53-2.87,7.71,12.09-4.83,23.65-9.09,35.93-10.77-.11.82-.25,1.61-1.15,2-12.68,1.78-24.46,6.3-35.93,11.8-1.63.79-1.82,2.43-2.46,3.87-2.27,5.17-4.69,10.27-7,15.43-.46,1-1.72,2.19-.66,3.35s2.29.44,3.48,0c10.42-3.52,21.18-4.79,32.12-5.08a7.4,7.4,0,0,1,3,.39,1.42,1.42,0,0,1-.26.95c-8.38,2-17.11.78-25.53,3a128.58,128.58,0,0,0-12.51,3.91,7.06,7.06,0,0,0-4.41,4.79c-2.28,6.77-5,13.39-7.67,20-.55,1.39-1.21,2.8.09,3.84,1.15.93,2.19-.3,3.29-.83A77.45,77.45,0,0,1,503,330.9a2,2,0,0,1-.71,2.07c-16.82.21-36,7.83-40.35,16.79-.15-7.4.06-14-3.26-20-3.12-5.66-5.74-11.6-8.78-17.33a62.08,62.08,0,0,1,13.85,25.79c3.6-9.32,7.71-17.87,10.06-26.88,1.22-4.68-2.17-9.74-4.08-14.42-2.06-5.05-5.38-9.53-6.86-14.85l.8-.2c4,1.41,5,5.25,6.63,8.44,2,3.87,3.49,8,5.65,12.83,4.08-9.23,9.32-17.08,8.94-27.12-.34-8.78.18-17.59-1.73-26.27-.37-1.67-.66-3.75,1.24-4.71,1.39-.7,2.11.75,2.77,1.78a78.11,78.11,0,0,1,2.46,25.51c-.16,2.78,1.1.73,1.77.82C492.3,273.3,493,273.59,492.63,274.67Z"/><path class="cls-11" d="M491.57,273.59c-1.61.93-.81,3.39-3.23,4.46a138.45,138.45,0,0,0-2.07-31,4.44,4.44,0,0,1,2.63-3c2.62-1,5.31,0,8-.21a4.45,4.45,0,0,0,3.21-3.06c3.33-1,5.92-3.8,9.56-4a6.74,6.74,0,0,1,5.26,1.77l-.16.17A193.74,193.74,0,0,0,496,267.85C494.8,270,494,272.38,491.57,273.59Z"/><path class="cls-12" d="M418.43,449.77c-17,20.24-38.78,27.65-64.6,24.39a16.2,16.2,0,0,1-5-1.53c-2.33-1.15-4-2.93-3.71-5.84.29-2.72,2.18-3.91,4.5-4.57,5-1.39,10.08-1.56,15.18-1.89,7.81-.49,15.67-.87,23-4.63-3.67,0-7.34-.17-11,0-4.27.25-7.58-.94-9.44-5-.1-3.89,2.37-5.56,5.67-5.38,5.27.28,6.27-2.21,5.74-6.77a28.77,28.77,0,0,1,.79-10.51c2.53-9.75,9.84-15.37,20-15.85,10.3-.5,18.92,1.77,23.46,12.18a5.67,5.67,0,0,1,1.43-.24c3.21,3.62,1.28,7.62.71,11.42C424.32,440.91,423.08,446.17,418.43,449.77Z"/><path class="cls-13" d="M253.92,419.63c-29.07,0-58.13.15-87.2.06-3.88,0-6.13,0-5.28,5.07.79,4.7-6.95,21-10.55,23.94a10.37,10.37,0,0,1-8.47,0c-3.87.19-5.35-2.74-5.69-5.55-.45-3.65-2.09-6.47-4-9.38a15.34,15.34,0,0,1-2.34-7.92,23.79,23.79,0,0,1,1.45-8.14,15.06,15.06,0,0,0,.57-4.72c.25-7.53,1.06-8.39,8.8-8.4q51.17-.09,102.33,0c2.47,0,5-.06,7.28,1.07a11.17,11.17,0,0,1,4.86,8.48C255.37,416,255.37,418.06,253.92,419.63Z"/><path class="cls-4" d="M63.88,418.87c.17-7.9-1.17-7.26,7.45-7.28,9.53,0,19.06-.08,28.59,0,4.37.05,5.43-1.63,3.36-5.42-2.22-2.13-2-5.08-2.61-7.77q-5.88-48.92-11.75-97.82c-.44-3.72-1.9-5.36-5.64-5.29-4.41.08-8.83.05-13.24,0-2.11,0-4.28.14-6.09-1.3-.28-13-.28-13,12.74-13l16.88,0c4.92,3.74,6,9.44,7.58,14.89,4.86,38.83,9.34,77.69,14,116.54,1.21,10.26,2.55,20.51,3.84,30.76.28,2.28.69,4.55-.92,6.55h-9.81c-3.3-5.38-2.78-11.58-3.45-17.45-1.6-14.13-1.46-11.45-12.7-11.68-6.88-.14-13.76,0-20.64-.05-2.28,0-4.63.15-6.54-1.51Z"/><path class="cls-14" d="M423.67,424.25c-.37,2-.91,1.37-1.58.12-6.93-13-23.77-13.44-34.12-7.07-5.39,3.31-7.16,9-7.76,15a31.49,31.49,0,0,0,.23,10c.91,3.93-1,4.39-3.84,4.21-3.88-.25-7.45-.08-9.23,4.19l-20.22-.11c-2.6-.69-5.25-.26-7.88-.3a9.35,9.35,0,0,1-5.46-1.62c-1.19-.84-2.18-2-1.76-3.54.37-1.36,1.68-1.69,2.92-1.91,2.25-.41,4.58-.14,6.79-.84,8.16-5.67,10.79-12.45,8.68-22.51-.22-1.64-1.3-3.39.54-4.8,3.74-1.41,7.64-.89,11.45-.75,10.1.37,19.92-.59,29.25-4.84a21.86,21.86,0,0,1,5.54-1.58c12.29-2.71,21.5,1,26,10.45C424.15,420.22,425.31,422.16,423.67,424.25Z"/><path class="cls-15" d="M253.92,419.63c0-1.75-.92-3.72,1.11-5,4.21-5.59,9.31-9.57,16.78-9.26a7.19,7.19,0,0,1,4,.15c5,4.14,8,10.2,13.11,14.24,5.76,5.66,10.62,11.89,10.75,20.41.05,3.81-.28,7.92-5.53,8.57-5.64,3.21-11.32,2.5-17,.19-4.63-2.45-7.82-6.3-10.64-10.6C262.36,432,258.11,425.85,253.92,419.63Z"/><path class="cls-16" d="M343,443.44c-1.74,1.8-4,.69-6,1-1.42.23-3.63-.89-4.05,1.14-.38,1.8,2,2.05,3.13,3.06,1.58,1.47,3.61.93,5.49,1.09s3.87-.58,5.54.83c-7.85,0-15.71.19-23.56,0-2-.05-3.95-1.18-5.92-1.81-3.35-1.87-3.4-4.11-.77-6.67.9-.87,2.79-1.24,1.31-3.19-4.29-5.64-4.82-12.69-7-19.12.11-4.59,3.28-4.45,6.38-3.9,10.76,1.92,14.46-.11,17.92-10.08,2.37-3.62,4.94-2.31,7.53-.29,2.55,3.39,5.71,6.36,7.37,10.39a6.32,6.32,0,0,1,1.14,4.13c1.39,7.91-.63,14.77-6.29,20.52A7.72,7.72,0,0,0,343,443.44Z"/><path class="cls-17" d="M99.53,294.68c-.89-5-4-9.09-6-13.67-.71-3.18-1.42-6.37-2.12-9.55a5.76,5.76,0,0,1-1.37-4c1-8.81,2.51-17.44,8.8-24.34,5.21-4.87,10.17-10,17-12.8,9.41-3.87,19-3.8,28.65-1.59a2.85,2.85,0,0,1,1.58-.21c3.62,1.13,7.22,2.31,10.34,4.57,12.72,9.47,18.59,22.19,18.26,38-.17,7.59,0,15.19-.05,22.79a25.55,25.55,0,0,0,1.23,8.86c-.64,4.19-3.63,8.18-.85,12.68,3,4.85,6.86,8.4,12.46,10,5.25,1.51,10.53.66,15.81.65,1.89.75,2.77,2.06,2.3,4.12-1.12,2.12-3.23,1.85-5.09,2-6.5.43-13,.3-19.5.15-1.47,0-4-.94-4.15.83-.27,2.57,2.5,2.49,4.32,2.57,5.79.25,11.6,0,17.4.11,3,0,6-.22,8.94.33a5.83,5.83,0,0,1,3.77,3.43c7.87,15.34,17.51,29.65,25.9,44.69,1.18,2.12,2.65,4.35.25,6.68-2.83,1.47-5.88,1.09-8.86,1.09q-51.69,0-103.39,0c-3.36,0-6.74-.15-9.85,1.48-3.41.26-2.87-2.62-3.06-4.37-1.38-12.8-2.19-25.65-3.39-38.46a258,258,0,0,1-.74-37.59C108.56,304.91,105.39,299.41,99.53,294.68Z"/><path class="cls-18" d="M329.11,94.47l20.25,10.36a28,28,0,0,1,9.5,7.53,18.77,18.77,0,0,0,5.32,5.26c2.86.58,3.59,2.9,4.27,5.25A59.56,59.56,0,0,1,378,136.66c2.93,1.29,1.76,4.5,3.07,6.55,2.05,6.87,2.62,14,3.28,21.06a1.46,1.46,0,0,1,0,2.12V177c2.7,5.55,1.6,11.28.88,17a2.33,2.33,0,0,1-1.31,1.25c-2.58-1.35-2.08-3.87-2.13-6.06-.15-6.86-.07-13.73,0-20.6,0-3.34-1.37-5.16-4.79-5.75A62.55,62.55,0,0,0,345.75,165a30.9,30.9,0,0,0-6.45,3.56c-3.45.16-3.12-2.56-3.57-4.68,1.15-2.75.8-5.25-.42-8-4.67-10.66-9.52-21.21-17-30.26-6.3-7.65-13.92-13.37-24.05-15-3.87-.38-7.7-1.1-11.56-1.52-6.36-.41-9.11-4.19-9.54-10.16a6.64,6.64,0,0,1-.07-2.59c2.32-4,4.62-8.1,9.49-9.63,2.93.11,5.79.84,8.79-.14a6.29,6.29,0,0,1,5.95,1.26l4.2.24c3.85-1,7.24.6,10.69,1.85,1.76.37,3.35,1.55,5.28,1.08C321.84,90.61,325.55,92.31,329.11,94.47Z"/><path class="cls-19" d="M146.57,162.16c-1.51-5.81.39-11.35,2.12-16.6,7.83-23.73,24.53-39.32,47-49.06a107.19,107.19,0,0,1,46.21-8.79c3.23,1.66,5,4.54,6.53,7.66a7.65,7.65,0,0,1-.11,3.3c-1,3.51-1.52,7.33-5.13,9.45-5.48,2.08-11.37,1.27-17,2.47-11.81,1-19.32,8.75-26.26,17.13-6.71,8.1-10.57,17.88-15.22,27.18-1,2-1.64,4.36-4.19,5.15-10.19.54-20.4.68-30.44,2.82A4.14,4.14,0,0,1,146.57,162.16Z"/><path class="cls-20" d="M462.9,282.07l-4.72-4.13c-1.19,4.92-.48,9.62-.55,14.25-.12,7.31-5,12.13-9.06,17.32-1.3,1.64-2.33.85-2.65-1.14-1.73-10.89-3.95-21.72-5.14-32.67-.76-7,4.59-12.22,7.79-18,1.67-3,3.83-5.7,5.22-8.91-6,5.58-9.73,12.67-13.43,19.79-2.84-.61-1.08-3.65-2.82-4.66-3-4.14-3.21-9.22-4.68-13.89-.35-5.1-2.27-9.95-2.24-15.12.1-17.21,4.83-33.32,11.43-49,.71-1.68,1.34-3.8,3.88-3.71l2.8.21c4.41,1.51,6.23,4.75,6.22,9.23,0,1.21-.26,2.46.44,3.59l.16,3c2,3,1.3,6.33.87,9.58-.21,4.56,2.12,7.93,5.13,11s6.31,5.54,8.36,9.29c.42.3,1.11.56,1,1.06-.77,5.41,1.74,10.84-.06,16.23a30.88,30.88,0,0,1-2.7,9.16c-2.32,3.88-1.9,8-1.22,12.22,0,.35.14.82-.06,1A13.76,13.76,0,0,0,462.9,282.07Z"/><path class="cls-21" d="M281.44,64.47c1.32,2.16,1.39,2.2,2.1,1.14s1.07-2.21,1.81-3.14c3.64-4.57,7.56-3.43,10,2.87a6.94,6.94,0,0,1,1.19,4.9A16.82,16.82,0,0,1,294,77.18c-1.12,2.09-3.21,2.59-5.24,3.2a12.85,12.85,0,0,0-5.25,2c-1,1.62.17,4.16-2.2,5.2L274,96.35c-6.82,8.24-21,7.7-26.39-1l-5.66-7.62a20.08,20.08,0,0,0-7.2-9.13c-5-3.52-6.25-9-4.32-15,.62-3.1,4.69-3.45,5.26-6.59a27.57,27.57,0,0,1,9.44-11.59c1.73-1.26,3.42-2,5.21-.39,4,3.53,9.07,4.37,14,5.47C272.36,52.28,278.29,56.68,281.44,64.47Z"/><path class="cls-20" d="M402.1,167.38c.35-.48.68-1,1.42-.72,5.09,2.18,5.78,7.52,7.6,11.64,6.92,15.69,12.24,32,17.38,48.36.48,1.56.76,3.26-.65,4.44-1.57,1.31-3.08.1-4.34-.71-7-4.55-14.3-8.67-18.49-11,5.29,2.79,13.33,7.93,21.48,12.85,4.82,2.92,7.07,10.25,4.56,14.05-5.1-4.26-9.15-9.63-15.27-12.87-7.59-4-15.85-4.48-24-5.87-3.8-3.59-5.82-8.3-8.1-12.86-1-6.52-2.34-13.06.75-19.42l-.06-.25c2.75-4.46,8.4-5.41,11.47-9.49l.31-1.72c.26-3.68-.92-7.36.84-11.1C398.2,170.16,399.28,168.08,402.1,167.38Z"/><path class="cls-22" d="M146.57,162.16A122.22,122.22,0,0,1,181.4,159c1,1.8,2.73,3.26,2.9,5.53-1.45,6.23-4.23,12-6.36,18-2.39,6.68-4.64,13.35-4.47,20.58a6,6,0,0,1-1.14,4c-2.7,2.06-5.88,2.16-9.07,2.16-8.19,0-10.64,1.76-10.54,7.57,0,1.23.31,2.46-.38,3.61-5.27,1.25-5-3.44-6.59-6.15l0-24.51c.91-6.95.14-13.93.43-20.89.07-1.89-.47-3.84.47-5.66A5.81,5.81,0,0,0,146.57,162.16Z"/><path class="cls-23" d="M406.67,165.5c3.05-1.77,5.59,1.08,8.46.92a3,3,0,0,1,3.14,2.2L426,177c4.11,1.82,8.1,4,12.89,2.95a4.86,4.86,0,0,1,3.91,1.14l-.11.34c1.48,1.5.49,2.94-.14,4.36a139.74,139.74,0,0,0-11,40c-.12,1.06,0,2.26-1.38,2.46s-1.69-1-2.11-1.93c-3-7-4.47-14.47-7.09-21.6-4.26-11.58-8.47-23.17-13.77-34.32C406.51,168.93,405.33,167.31,406.67,165.5Z"/><path class="cls-1" d="M292.88,77.14q1.35-3.12,2.68-6.26c2.75-1.71,6.18-2.39,8.15-5.31,37,0,73.9.07,110.86-.1,4.31,0,6.44.73,4.79,5.33-1.42,4,.85,7.84,0,11.75-2.12-2-4.25-1.55-6.37,0-2.59-3,2.07-5.55.4-9.22-1.37-3-2-4.73-5.53-4.64-3.16.08-5.25.4-5.65,4.42-.47,4.76-10.29,7.46-14,4.19-1.11-1-1-1.89-.71-3.25,1-4.2-1.1-6.85-5.49-6.19-12.29,1.87-24.63.52-36.93.84-9.7.26-19.42,0-29.12.11-2.42,0-5.53-1.26-6.79,2.35-1.34,3.87-.39,6.55,3.54,9.46-2.95,3.22-6.15,4.18-10.06,1.94.77-1.2,2.27-.89,3.4-1.59a2.87,2.87,0,0,0-3.4,1.58,22,22,0,0,0-8.49-1.06C293.35,80.15,293.31,78.59,292.88,77.14Z"/><path class="cls-24" d="M58.37,216.32a27.77,27.77,0,0,1,17,0,2.94,2.94,0,0,1,.69,2.45C76,234.86,76.24,251,75.91,267c-5.44,3.16-11.12,2-16.79,1-1.61-1-1.7-2.51-1.5-4.15.45-1.84,1.94-2.86,3.19-4.09,6.47-6.38,6.51-14.09.19-20.45-1.45-1.46-3.52-2.57-3.08-5.17C58.4,228.19,57.57,222.23,58.37,216.32Z"/><path class="cls-25" d="M98.88,243.07c-3.26,7.74-7.1,15.3-7.48,23.94-3.19,2.57-6.63,2-10.13.81a1.46,1.46,0,0,1-.64-1.68c.08-12.19.11-24.38.28-36.57,0-2-.83-4.24,1-6a25.2,25.2,0,0,1,9.52-.11c7.16.45,7.13.45,7.18,8C98.65,235.38,98.79,239.22,98.88,243.07Z"/><path class="cls-1" d="M354.65,95.29c-1.7-.13-3.59.5-5-.59-1.88-1.4-3.22-1.63-4.64.6-1.21,1.89-2.73.51-4.11,0-1.34-5.56-.62-6.51,4.46-7.6,2.77-.6,5.64.39,8.28-.89a108.49,108.49,0,0,1,23.35,0c3.22,1.89,6.46,1.23,10,.89,9.47-.91,19-.41,28.55-.26,3.34.06,4.5,3.72,2.8,7.86a90.82,90.82,0,0,1-21.23,0h-7.43C378,94.79,366.32,96.91,354.65,95.29Z"/><path class="cls-26" d="M38.35,271.31c5.41-4.83,4.26-11.28,4.28-17.43q.06-15,.07-30l7.27-.16c1.38,3.4.2,7,.69,10.42,1.11,2.11.86,4.41,1,6.65,0,5.72.12,11.44-.06,17.15a53.9,53.9,0,0,1-.15,5.39c-.44,4.06-2.36,6.94-6.49,8Z"/><path class="cls-27" d="M406.67,165.5c3.52,8.75,7.21,17.44,10.52,26.27,3.44,9.19,7.18,18.32,9.42,27.9.66,2.82,2.19,5.11,3.45,7.85.85-5.48,2-10.8,3.07-16.12,1.77-8.65,4.87-16.83,8.09-25,.65-1.63,1.74-3.09,1.46-5,1.17-.1,2.42-.49,3.25.81-4.84,6.84-7.41,14.79-9.22,22.7-2.31,10.13-5.91,20.24-4.58,31,.6,4.83,1.39,9.64,2.1,14.46-2.53-.43-3.51-1.93-3.07-4.41.6-6.3-1.73-11-7.3-14.2-8.77-5.09-17.41-10.41-25.84-16.17,6,1.41,11,5.19,16.34,8,3.57,1.87,6.83,4.32,10.28,6.41a3.4,3.4,0,0,0,2.43.57c.94-.29.93-1.49.64-2.29-7.35-20.81-12.75-42.4-24.19-61.61Z"/><path class="cls-1" d="M337.67,46.47a26.89,26.89,0,0,0-3.23,3.36c-1.22,1.79-2.66,2.41-4.46,1.23-5.31-3.48-11.2-2.79-16.91-2.09-2.44.3-3.33-.46-3.79-2.31s.71-2.78,2.48-3.35c4.12-1.34,8.35-1.08,12.56-1.08s8.49.21,12.71,0a55,55,0,0,1,20.76,2.28c7.54,2.48,14.4-2.66,21.74-1.2,1,.2,2.14-.12,3.17.06,1.79.31,4.91-1.08,5.11,1,.28,2.9-3.28,2.45-5.24,3.06a25.34,25.34,0,0,1-16.64-.25c-3.31-1.17-8-.64-11.24.85a8.22,8.22,0,0,1-8.72-.57c-2.27-1.4-4.8-.87-7.24-1,2.67-2.68,5.84-2.23,9.06-1.8-8.16.61-16.31-.27-24.3.09C327.89,47.47,333,44.69,337.67,46.47Z"/><path class="cls-1" d="M302.59,32.71c-6.77-3.76-10.75-9.66-12.95-16.92,10.16-1,20.4-3.12,30.24.87l0,1.65c-4.78.55-9.55,1.11-14.33,1.62-1.25.14-2.55.1-2.79,1.76a3.06,3.06,0,0,0,1.42,3.16c6.15,4.39,6.14,4.41-.5,7.81A.65.65,0,0,1,302.59,32.71Z"/><path class="cls-1" d="M460.79,136.69c-2.62,2.24-6.08,2.23-6.85,6.71-.36,2.16-7.33.41-8.29-2.43-.77-2.3-2.5-2.14-4.25-2.16s-3.46.12-3.63,2.19c-.4,4.85-3.87,4.48-6.89,3.84a26.08,26.08,0,0,0-12.48.09c-3.89,1-7.54-1.59-11.6-1,2.35-1.37,5.6-1.56,5.36-5.51-.12-1.88,1.89-1.7,3.27-1.71,1.92,0,3.75-.15,4.88,2.16,2.54,5.16,5.34,5.75,8.79,1.53,3.7-4.53,8.89-2.64,13.26-3.42C448.33,135.89,454.63,136.69,460.79,136.69Z"/><path class="cls-1" d="M244.24,11.54l-2-.2c-2.86-.33-6,1.27-8.54-1.22l.71-2.44c5.9,1.88,10.26-4.88,16.45-2.75,2.9,1,6.1-.35,9.17-1.5,2.43-.9,6.32-2.65,7,2.61a1.7,1.7,0,0,0,2,1.32c5.6-.64,11.47,1.44,16.79-1.41a8.06,8.06,0,0,1,4.54-.78,2.52,2.52,0,0,1,2.6,2.2,2.09,2.09,0,0,1-2.24,2.4c-2.17,0-3.16,1.22-4,2.86-8.14-5.86-16.19-2.74-24.25.22C256.71,7.73,250.56,8.46,244.24,11.54Z"/><path class="cls-1" d="M466.16,267.3c-2-4.48-2-8.82.91-13,2.22,0,4.14-.67,3.53-3.24-1.1-4.62,1.67-7.14,4.54-9.81,1.92-1.79,4.25-3.06,6.05-5a3.6,3.6,0,0,1,5.22-.44c2.74,2.49,6,3,9.39,3.76.15,1.46-.49,3.12,1.06,4.24-2.61,2.19-5.64.65-8.45,1-7.92-.23-10.47,1.62-12.82,9.43-1.17,3.88-1.9,8-4.26,11.34C470.18,267.25,469,270.28,466.16,267.3Z"/><path class="cls-28" d="M50.15,264.12l.12-5.78c2.44-1.34,5.62-1.1,7.55-3.52,3.43-4.75,3.45-6.38.08-11.22-2.07-2.37-5.13-2.07-7.77-2.9l0-6.57a.58.58,0,0,1,1,0l4.18.25c.82.9,2.2,0,3,.94,12,8.53,12,19.54,0,27.85C55.83,265.67,53.13,266,50.15,264.12Z"/><path class="cls-1" d="M495.8,239.62c-2.54.77-4.77,1.4-7.15-1.08-2.68-2.79-5.82-3.54-8.74.38a23,23,0,0,1-5.43,4.86c-2.69,1.87-3.78,3.91-2.34,7.14.9,2,0,3.84-1.86,5s-2.5-.3-3.21-1.57l2.46-8.41c1.54-2.89,3.9-5.3,5-8.44,6-.47,6.43-1,4.07-6.05a1.8,1.8,0,0,1,.53-2.63,7.29,7.29,0,0,1,8.36-1.21c3.41,1.57,1.62,3.31.73,5.82a3.06,3.06,0,0,0,4.43,3.71C496.61,235.14,495.74,237.6,495.8,239.62Z"/><path class="cls-1" d="M486.25,191.86c-7.14-.45-14.35.95-21.46-.84-.86-.22-2,.54-3,.84a10.27,10.27,0,0,0-5.12-3.28c-1.8-.63-3.64-1.6-2.31-4.15,6.46,3.49,13.55,3.85,20.48,2.94,4.28-.57,8.07-3.13,6.49-8.87-.43-1.55.78-2.2,2.09-2.41,1.07-.18,2.76.09,2.46,1.17-1.24,4.4,2.89,3.54,4.56,5.05-1.07,2.14-1.94,4.49-5.14,4-1.4-.21-3.1,0-3.31,1.65-.26,2.07,2,1.36,3,2C485.8,190.42,486.6,190.75,486.25,191.86Z"/><path class="cls-1" d="M486.25,191.86c-.69-1-1.77-.94-2.82-1.09-1.52-.21-4.3.72-3.64-2.1.39-1.65,1.69-5,4.08-3.9,3.58,1.63,4.6-1.26,6.62-2.46,1,6,2.05,12,3,18.07.32,2.08-1.11,3.3-2.82,4s-2.64-.56-3.55-1.68c-1.06-1.29-.42-2.43.64-3.16C493.18,195.75,488.78,194,486.25,191.86Z"/><path class="cls-1" d="M395.87,185.49c-1.53,5.94-7.66,6.31-11.47,9.49V177c3.46-.52,5.34,1.07,5.88,4.43S392.7,185.94,395.87,185.49Z"/><path class="cls-1" d="M451.49,104.65c-4.64,1.45-48.17,1.82-55.57.78C398.7,103.49,442.05,102.7,451.49,104.65Z"/><path class="cls-1" d="M472.2,150.53c8.08-.06,9.85,1.59,10.9,9.9a13.94,13.94,0,0,0,1.12,4c.8,1.73-.08,2.67-1.3,3.49-1.43,1-2.65.39-3.75-.7-1.28-1.25-1.24-2.16.26-3.38,2.46-2,1.86-4.88,1.06-7.3s-3.51-1.73-5.52-1.8c-2.64-.09-5.27,0-7.91,0-1.2,0-2.72.11-2.83-1.57s1.15-2.49,2.71-2.58C468.69,150.46,470.45,150.53,472.2,150.53Z"/><path class="cls-1" d="M482.77,218.38c-3.09.31-6.65-.6-10.06.8-.94.38-2.34.62-2.8-.53-.63-1.57.89-2.11,2-2.55a9.92,9.92,0,0,1,3.52-.85c3.7,0,5.55-1.7,5.56-5.44,0-1-.31-2.36,1.16-2.51,1.28-.13,1.89,1,1.87,2.07-.1,5,2.53,6.46,7.05,5.88,1.22-.16,2.87,0,2.88,1.54s-1.62,1.58-2.86,1.59C488.43,218.4,485.79,218.38,482.77,218.38Z"/><path class="cls-29" d="M145.75,214.24c2.76,1.38,2.69,5.52,6.11,6.25,3.58,3.66,4.46,8,3.09,12.82-3-1.77-6.73-2.17-9.49-4.52a50.58,50.58,0,0,1,0-13.52Z"/><path class="cls-1" d="M337.67,46.47c-6.27,2.35-12.32.17-18.86-.55,4.34-3.66,29.49-3.49,33,0-4.36,2-8.93-2.73-13.07.55Z"/><path class="cls-1" d="M391.75,105.72h-29c1-2.47,2.9-1.89,4.4-1.92,4.72-.11,9.16,0,13.72-2.63C385,98.84,388.55,102.86,391.75,105.72Z"/><path class="cls-1" d="M418.33,95.29c.25-6.93-.18-7.42-6.47-7.43-6.71,0-13.42,0-20.14,0-3.07,0-6.09,0-8.16,2.73-1.15,1.53-1.8,1-2.79-.21a40.44,40.44,0,0,0-3.83-3.56c12.83,0,25.66,0,38.49,0,3.32,0,6.69,5,5.31,7.91C420.52,95.19,419.16,95.11,418.33,95.29Z"/><path class="cls-30" d="M239.77,12.33A16.54,16.54,0,0,0,224.7,30.15c.16,1.9.43,3.8.65,5.7-4.24-1.19-2.48-5-3.14-7.63a10,10,0,0,1,1.91-8.3c1.66-3.87,3.54-7.5,8.44-7.93C235,10.39,237.47,10,239.77,12.33Z"/><path class="cls-1" d="M353.59,86.8c-1,1.34-2.47,1-3.83,1-4.95.12-9.15,1.1-8.91,7.44-1.05,0-2.1,0-3.15,0s-2.21.21-2.79-.93.83-1.75,1.09-2.56c2-6.39,7.22-4.93,11.81-5C349.74,86.78,351.66,86.8,353.59,86.8Z"/><path class="cls-31" d="M80.63,266.14a1.91,1.91,0,0,1,.24.73c-1.69,1.92-3.41,1.88-5.15.06l-.36-50.61c2,1.39,1.21,3.52,1.22,5.34.07,13.38.11,26.76,0,40.15C76.54,264.85,77.23,266.61,80.63,266.14Z"/><path class="cls-1" d="M346,30.55c4.54,0,9.08,0,13.62,0,1.73,0,3.59.4,5-1.18.78-.89,1.33-2.33,2.89-1.6.72.33.64,1.16.32,1.86-.55,1.22-.55,2.94-2.48,3-2.83,0-5.66.13-8.48,0-3.6-.09-7.27.44-10.8-.45Z"/><path class="cls-1" d="M445.28,128c.68,2.23-.88,2.19-2.33,2.27-2.66.15-4.61-.66-4.41-3.75.15-2.27.55-5.38,3.19-5.22C445.5,121.56,444.53,125.51,445.28,128Z"/><path class="cls-1" d="M388.85,130.14c-.31,0-2.57.62-1.68-2.18.79-2.52.17-6.53,3.82-6.57,2.35,0,2.74,3.2,2.93,5.54C394.16,130,392.44,130.56,388.85,130.14Z"/><path class="cls-1" d="M454.41,184.43c.15,2.53,1.76,3.21,4,3.21,2.84,0,3.56,1.78,3.46,4.22-2.67.15-7.15-3.11-6.45,3.41-1.52-4.64-2.22-9.7-6.66-12.82C451.15,181.61,453.76,180.21,454.41,184.43Z"/><path class="cls-1" d="M354.65,95.29c6,0,11.94,0,17.9,0,2.48,0,4.93,0,7.12-1.36,3.72-2.39,6.54,1.89,10,1.35-1.19,1.48-2.87,1-4.39,1q-13.11,0-26.24,0C357.52,96.33,355.84,96.77,354.65,95.29Z"/><path class="cls-1" d="M402.1,167.38c-5.58,4.16-4.33,10.79-5.92,16.39-4.3-5.25-.87-10.12.86-15C398,166.17,399.89,165.92,402.1,167.38Z"/><path class="cls-1" d="M394,53.86c-.09,3.72-.85,5.92-3.32,5.91-2.09,0-3-2-3.07-4.13-.07-2.56,1.09-3.85,3.72-3.85S394,53.43,394,53.86Z"/><path class="cls-1" d="M474.57,237.49c1.36,4.63-2.78,6-5,8.44,1-5.92,1.82-11.86.38-17.84,3.13.08,4,1,2.27,4.13C470.87,234.53,470.17,237.39,474.57,237.49Z"/><path class="cls-1" d="M303.71,65.57c-.56,5.08-4.27,5.33-8.15,5.31l-.21-5.54a2,2,0,0,0,2.11-.83C299.61,64.48,301.78,64.33,303.71,65.57Z"/><path class="cls-1" d="M442.79,181.09C436.89,181,430.47,183,426,177c4.88-.76,9.28,3.21,14.38,1.3C441.64,177.82,442.59,179.59,442.79,181.09Z"/><path class="cls-1" d="M343,55.82c-.27,2.21-1.24,4-3.08,4-2.47-.07-3.33-2.15-3.27-4.47,0-2,.71-3.64,3-3.28C341.75,52.35,342.72,54,343,55.82Z"/><path class="cls-1" d="M281.29,87.61c.73-1.73,1.47-3.46,2.2-5.2.16,4,2.31,4.38,5.53,3.21s6.65-2.79,8.32,2.16Z"/><path class="cls-1" d="M439.55,87.86c2.86-.12,5.62.06,5.25,4-.3,3.12-1.93,4.69-5.25,3.44C436.62,92.81,438.59,90.33,439.55,87.86Z"/><path class="cls-32" d="M302.59,32.71l1.12-.05c3.67,5.16,3.82,10.53,1,16.08A85.72,85.72,0,0,1,302.59,32.71Z"/><path class="cls-1" d="M325.5,17.81c2.13-3.06,4.86-3.67,8-2.95a2.25,2.25,0,0,1,1.84,2.28c0,1.4-1.07,1.74-2.17,1.68C330.63,18.7,327.94,19.57,325.5,17.81Z"/><path class="cls-1" d="M329.11,94.47A41.73,41.73,0,0,1,317.51,91c.11-1.32,1.17-3.21,1.86-2.63C322.37,90.83,328.14,89,329.11,94.47Z"/><path class="cls-1" d="M368.45,122.87l-4.27-5.25c1.78-1.6-.05-5.79,2.34-5.71,3.62.11.4,4.2,2.06,6.07C370,119.5,369.41,121.26,368.45,122.87Z"/><path class="cls-1" d="M401.5,153.74c2.88-2.79,5.25-4.49,8.43-2.35.76.51,1.23,1.77.52,2.29C407.8,155.61,405,154.85,401.5,153.74Z"/><path class="cls-33" d="M224.12,19.92c-1.33,5.44-2.48,10.87,1.23,15.93,1.87,1.19.13,2.15-.2,3.2-3.88-4.79-4.57-10.23-3.46-16.12A3.48,3.48,0,0,1,224.12,19.92Z"/><path class="cls-1" d="M312.23,89.87A36,36,0,0,1,301.54,88c.14-1.81,1.35-2.79,2.84-2.09a11.2,11.2,0,0,0,6.9,1C313.72,86.63,312.75,88.59,312.23,89.87Z"/><path class="cls-1" d="M395.8,45.75C398.85,47,402,47,402.08,50.36c.05,1.8-2.07,1.45-3.36,1.36C394.5,51.42,396.66,48.35,395.8,45.75Z"/><path class="cls-19" d="M146.62,163.18c0,7.36,0,14.71,0,22.07,0,1.53.4,3.19-.91,4.48C146,180.88,144.58,172,146.62,163.18Z"/><path class="cls-1" d="M464,203.53c-1.64-1.77-1.08-3,1.13-3.09,4.91-.14,9.83,0,14.74.14.82,0,2.38.21,2.18,1.58-.08.55-1.38.92-2.13,1.37l-.7-.21a40,40,0,0,0-14.52,0C464.43,203.4,464.19,203.47,464,203.53Z"/><path class="cls-1" d="M376.94,86.8H353.59A52.29,52.29,0,0,1,376.94,86.8Z"/><path class="cls-1" d="M456.42,207.82c-1.6-3.07-.79-6.36-.87-9.58C459.88,201.07,459.63,204.31,456.42,207.82Z"/><path class="cls-1" d="M413,82.55c.15-2.14,1.3-3.22,3.45-3.11,1.92.1,2.8,1.27,2.92,3.11C417.27,83.48,415.14,84.58,413,82.55Z"/><path class="cls-1" d="M397.1,95.29h21.23A43.58,43.58,0,0,1,397.1,95.29Z"/><path class="cls-1" d="M345.1,82.55c-1.28-.13-2.67-.41-2.65-1.93s1.44-1.21,2.43-1.23q3.4-.06,6.81,0c1,0,2.41-.2,2.42,1.23s-1.37,1.8-2.64,1.93C349.34,81.12,347.22,81.47,345.1,82.55Z"/><path class="cls-31" d="M58.33,235.3c-1.11,0-2.23.07-3-.94,2.9-.5,2-2.81,2.17-4.59.45-4.47-1-9.07.89-13.45Q58.34,225.8,58.33,235.3Z"/><path class="cls-1" d="M302,57.4a1.52,1.52,0,0,1,2-1.3c1.84.26,3.47,1,3.27,3.21-.06.76-.57,2-1.66,1.61A6.27,6.27,0,0,1,302,57.4Z"/><path class="cls-1" d="M438.49,167.45c-.88-.08-1.92-.1-2.26-1-.44-1.2.75-1.37,1.48-1.66,2.37-.94,4.87-.35,7.32-.45,1,0,2.44-.22,2.48,1.19s-1.36,1.84-2.65,2C442.74,165.71,440.61,167,438.49,167.45Z"/><path class="cls-1" d="M345.1,82.55c-1-3.75,2.09-2,3.18-2s4.16-1.77,3.19,2C349.34,83.48,347.22,84.58,345.1,82.55Z"/><path class="cls-1" d="M438.49,167.45c2.71-3,5.31-3,6.37,0C442.74,168.38,440.61,169.48,438.49,167.45Z"/><path class="cls-1" d="M358.86,112.36l-9.5-7.53C354.62,104.7,356.62,108.68,358.86,112.36Z"/><path class="cls-1" d="M326,80.43c-1,4.07-3.41,3.94-6.37,2.12-1.33-1.08-1.94-2.29.38-2.53C322,79.82,324.07,79.42,326,80.43Z"/><path class="cls-1" d="M424.63,150.5c1.42.18,2.86.46,2.65,2-.23,1.71-1.91,1-3,1.11s-2.42.12-2.27-1.33S423.52,150.58,424.63,150.5Z"/><path class="cls-1" d="M479.88,203.53a25.07,25.07,0,0,1-15.92,0A25.63,25.63,0,0,1,479.88,203.53Z"/><path class="cls-1" d="M292.88,77.14c2.32.9,2.48,2.43,1.28,4.35l-5.42-1.11Z"/><path class="cls-1" d="M418.27,168.62l-3.14-2.2c1-1.94,2.79-3,4.46-1.58S418.45,167.22,418.27,168.62Z"/><path class="cls-1" d="M439.55,87.86c.66,2.47-1.76,5,0,7.43C436.33,93.41,436.33,90.77,439.55,87.86Z"/><path class="cls-31" d="M145.42,215.27q0,6.76,0,13.52H145l-.47-.12C145,224.22,143.52,219.63,145.42,215.27Z"/><path class="cls-1" d="M381.11,143.21c-1.81-1.81-1.95-4.41-3.07-6.55C385,136,379.74,141.19,381.11,143.21Z"/><path class="cls-1" d="M326,80.43h-5.31c-1.82,0-1.38,1.08-1.06,2.12-1.3-.11-2.7-.45-2.66-2s1.5-1.29,2.49-1.18C321.65,79.63,324.07,78.51,326,80.43Z"/><path class="cls-1" d="M432.21,78.22c.09-.91.34-1.84,1.48-1.5a2.8,2.8,0,0,1,2.2,2.54c.05.86-.76,1-1.45,1.09A1.87,1.87,0,0,1,432.21,78.22Z"/><path class="cls-31" d="M91.44,223.5l-9.52.11c2.1-2.34,6.4.81,7.85-3.15Z"/><path class="cls-34" d="M239.77,12.33c-2.35-1.32-4.77-1-7.21-.34-.28-1,.25-1.53,1.1-1.87,2.84.5,6-1.07,8.54,1.22C241.82,12.73,240.86,12.68,239.77,12.33Z"/><path class="cls-1" d="M384.4,166.39c0-.71,0-1.41,0-2.12,1.59.28,3.43-.68,4.82.91C388.12,167.9,386.08,166.44,384.4,166.39Z"/><path class="cls-31" d="M51.13,234.11l-.48.1-.48-.08c-.06-3.46-.13-6.93-.2-10.39C52.36,227,50.6,230.67,51.13,234.11Z"/><path class="cls-1" d="M395.67,136.89h6.44C400.14,139.35,398.6,139.09,395.67,136.89Z"/><path class="cls-22" d="M431.16,246l3.07,4.41c1.22,4.5,3,8.87,3.31,13.6l-.06,9.67c-.05,11.2-5.7,19.45-13.93,26.32a2.21,2.21,0,0,1-2,.32c-2.63,1.05-2.11,3.35-2.12,5.4q0,17.91,0,35.83a4.38,4.38,0,0,1,1.31,3.36c-1.06,7.47,0,15.19-2.73,22.44-.5,3.83-.77,7.69-1.54,11.46-1,5,.39,7.39,5.76,6.5,0,0-.09.44-.1.43-3.52-.26-6.39.43-6.84,4.67-2.08,1.71-4.58,1.66-7,1.66q-69,0-138,0a17.44,17.44,0,0,1-5.75-.63,4.69,4.69,0,0,1-2.87-4.69,11.27,11.27,0,0,0-.56-8.22c-4.47-10.8-7.24-22.15-10.76-33.26a11.92,11.92,0,0,1-.68-6.26c1.52-4,5.07-3.31,8.11-3.33,18.36-.11,36.72,0,55.07-.05,10.77,0,21.54,0,32.31,0,2.34,0,4.87.3,6.94-1.82-2.32-1.78-4.67-1.12-6.86-1.13q-44.22-.07-88.43,0c-2.82,0-5.66.24-8.42-.61-4.6-3.54-5.57-8.26-4.46-13.67a3.65,3.65,0,0,1,3.4-1c7.32,1.53,14.37-.81,21.49-1.7,19.8-2.46,39.69-4.44,59.09-9.48a244.14,244.14,0,0,0,29.67-9.8c8.55-3.43,16.08-8.19,20.21-16.95a3.4,3.4,0,0,1,1.86-1.79c2.38.7,3.27,3.06,5,4.54a18.73,18.73,0,0,0,27.53-2.88c6.46-8.49,4.18-22-5.06-27.33-7.55-4.38-20.21-4.65-26.66,6.59-.95,1.65-1.34,3.69-3.21,4.72a2.13,2.13,0,0,1-2-.32c-4.48-4.66-10.55-6-16.32-8.08-1.57-2.15-.34-4.06.63-5.89,3.59-6.85,8.41-13,15.19-16.49,6.39-3.3,8.76-7.48,7.08-14.25-14.27,18.37-33.32,30.63-54.18,40.43-2.09,1-4.26,2-6.32-.13-1.22-2.61-.51-5,.77-7.35a124,124,0,0,0,11.26-14c12.07-18,16.89-37,7.72-58-1.43-3.27-3.66-6.54-2.38-10.51.59-3.76,3.94-4.35,6.61-5.25,10.49-3.52,21.26-3.95,32.16-2.27,4,.62,6.5,1.91,6.1,7-.57,7.36-.17,14.8-.12,22.2,0,1.7-.51,3.58,1.15,4.91-.12,6.74-1.06,13.51.79,20.17-.17,1.77.69,3.49.42,5.24-.74,4.86,1.33,6.84,6.1,6.22,13.79-.19,26.11,3.4,35.61,14C428.77,242.46,429.9,244.26,431.16,246Z"/><path class="cls-35" d="M444.89,367.05h-2.65c-2.37-.75-3.68-2.69-5-4.55-4.41-6.19-9-12.19-14.94-17.05-1.19-1-2.47-2.1-1.89-4,0-11.12.15-22.24-.07-33.36-.08-4.34,1.13-4.78,4.72-2.86a118.49,118.49,0,0,1,16.13,10.9c6.76,5.19,7.54,18.31,1.89,24.66-5.83,6.54-2.43,13.56-.49,20.4A61,61,0,0,0,444.89,367.05Z"/><path class="cls-20" d="M421.55,300.27c8.87-6.75,13.53-16,15.93-26.64,3.49,7.76,3.9,16.21,5.14,24.42.75,5,2.57,9.86,2.24,15-.1,1.69-.33,3.84-2.56,1.8-6.14-5.6-13.56-9.2-20.46-13.61C421.62,301.12,421.64,300.61,421.55,300.27Z"/><path class="cls-36" d="M64,294c7.57-.09,15.15-.08,22.71-.3,2.65-.08,3.25,1.24,3.52,3.44C93.05,321.43,96,345.7,98.86,370c1.14,9.6,2.1,19.22,3.15,28.83-4.54,1.29-6.17-2.69-8.33-5a257.51,257.51,0,0,1-24.34-30.64c-.65-1-.94-2.29-2.4-2.7-1.11,2-.55,4.12-.56,6.15-.06,12.35,0,24.71,0,37.06,0,2.25.42,4.65-1.39,6.54-1.66-1.63-.78-3.68-.78-5.5q-.06-51.65,0-103.29C64.17,298.93,64,296.47,64,294Z"/><path class="cls-37" d="M75.72,266.93l5.15-.06L91.4,267c0,1.49,0,3,0,4.45-11.08,0-22.15,0-33.22,0-1.89,0-3.89.43-5.57-.95-1.48-1-1.44-2.39-.3-3.4,1.86-1.64,4-1.55,6.1-.25Z"/><path class="cls-38" d="M58.46,266.83c-1.58,1.78-7-2.62-5.8,3.64-2.38,1.9-5.13.73-7.72.91,2.41-1.94,5.06-3.71,5.21-7.26l8.13-1Z"/><path class="cls-39" d="M491.57,273.59c5.87-9.89,11-20.21,17.91-29.46,1.5-2,2.5-4.59,5.25-5.4-3.74,8.49-10.17,15.31-14.58,23.41-2.32,4.26-3.93,9-7.52,12.53Z"/><path class="cls-40" d="M466.16,267.3c4.45.45,4.72-3.55,5.89-6.05,1.53-3.27,2-7,3.27-10.42,2.48-6.72,5.92-8.22,13.09-6a3.73,3.73,0,0,1-2.14,2.21c-.49-.45-1.15-1.37-1.42-1.26-1.36.52-.83,1.85-.6,2.7,2.6,9.47,1.79,19.16,2.06,28.8.17,6.06-1.65,11.47-4.45,16.58-2.17,4-3,8.59-6.29,12.73-3-7.12-5.2-14-8.92-20.28-1-1.67-1.81-3.44-3.75-4.24C457.87,275.79,461.65,271.47,466.16,267.3Z"/><path class="cls-41" d="M114.71,393.58c-.11-4,2.82-3.25,5.19-3.25q30.71,0,61.43,0c16.95,0,33.9,0,50.85,0,2,0,4.3.8,5.9-1.29,3.3.84,3.73,4.79,6.61,6.08a47.29,47.29,0,0,1,7.46,9.93,1.69,1.69,0,0,1-.64,2c-1.79-1.07-3.77-.72-5.69-.72-35.27,0-70.54.1-105.8-.13-5.08,0-7.07,1.21-6.37,6.38.27,2,.62,4.22-.5,6.21-2.14-1.45-1.76-3.75-1.68-5.76.14-3.4-1.09-5.09-4.61-5.66-4.73-.77-8.3-3.72-11.1-7.5C114.42,398,113,396,114.71,393.58Z"/><path class="cls-42" d="M114.71,393.58c1.44,6.71,6.61,12.22,13.06,12.43,4.58.15,5.76,1.74,5.29,5.88a50.15,50.15,0,0,0,.09,6.82,20.36,20.36,0,0,0-1.55,7.67,54.58,54.58,0,0,0-17.69-13.76q-4.32-34.85-8.64-69.69c-2-16.08-3.83-32.17-5.74-48.25a5.24,5.24,0,0,1,.51-.88c4.27,1.55,9.57,8.95,9.44,13.4-.85,27.93,1.77,55.68,4.27,83.44A4.33,4.33,0,0,0,114.71,393.58Z"/><path class="cls-43" d="M251.51,407v-1.59c4.07-4.24,9.73-5.21,14.88-7.25,3.69,1.41,5.6,4.06,5.56,8.06-1.95,2.32-4.59,0-6.83,1a13.84,13.84,0,0,0-6.53,5.75c-.89,1.58-1.67,2.59-3.55,1.62C253.86,412.06,252.68,409.51,251.51,407Z"/><path class="cls-44" d="M398.06,406.4c.06.89.13,1.78.19,2.67-15.27,7.12-31.54,7.17-47.87,6.86-3.49-2.38-5.51-6-7.68-9.41,1.63-2.13,4-1.95,6.28-2q21.36-.15,42.73,0C394,404.57,396.34,404.41,398.06,406.4Z"/><path class="cls-45" d="M343,443.44c-1.06-.48-.58-1.05,0-1.52,6.65-5.81,8.54-13.47,8.56-21.86C354.51,428.44,351.61,436.39,343,443.44Z"/><path class="cls-41" d="M398.06,406.4l-55.35.12c-2.09-.73-4.09-5.11-6.32-.17-2.34,1.57-5,1.59-7.65,1.59-15,0-30,0-45,0a16.46,16.46,0,0,1-7.7-1.54,6.63,6.63,0,0,0-4.06-.23l-5-7.46c-2.55-2.23-4.27-4.79-3.29-8.41l151.57,0Q414.91,405.44,398.06,406.4Z"/><path class="cls-46" d="M276,406.42l60.38-.07c.77,8.69-6.73,9.78-11.95,12.82-2.35,1.37-4-1.52-6.21-1.79-2.48-.32-5.77-2.68-6.14,2.4l-24.3.31C282.84,416.42,279.43,411.42,276,406.42Z"/><path class="cls-47" d="M244.16,395.62c-4.11-.3-3.58-4.85-6.08-6.63l-29.71-51.83c-2.66-1.71-3.09-4.46-3.39-7.28,0-1.38-.95-2.26-1.65-3.28-2.26-1-2.54-3.24-3.33-5.12a196.87,196.87,0,0,1-8-23.41c-2.18-8.57-3.33-17.1.89-25.45a25.55,25.55,0,0,1,5.56-6.44c11.58-7.29,23-3.86,31.44,9.41,1.56,3.08,4.22,3.89,7.47,3.88,13.2,0,26.4,0,39.61-.05,5.75,0,11-2.25,16.2-4.34,9.17-3.11,17.9-7.37,27.09-10.44a210.79,210.79,0,0,1,32-10.37c2.16-.5,4.44-1.43,6.62.08a24.17,24.17,0,0,1,18,8.71c4.67,3.75,5.81,9.16,3,14.44-3,9-9.56,14.56-17.86,18.36-21.37,9.79-44.05,14.74-67.16,18-14.32,2-28.67,3.71-43,5.53-1.63.21-3.53,1.34-4.6-1-2.87-4.45-2.69-9.78-4.22-14.61-.36-1.11-.26-3.05-1.76-2.78-2.1.36-1,2.2-.71,3.43,1,4.77,4.16,9,3.44,14.21a45.8,45.8,0,0,0,3.49,12.29c3.21,2.63,2.1,6.54,2.93,9.88,3.82,13.58,7.77,27.12,13.08,40.21,1,2.52,1.2,4.34-1.54,5.6A47.93,47.93,0,0,1,244.16,395.62Z"/><path class="cls-48" d="M112.67,267.41c0-12,7.7-18.78,20-19.48,11.2-.64,20.48,10.27,20.33,20.35-.15,10.77-9.88,20.29-20.9,20.15C122.76,288.31,111,279.34,112.67,267.41Z"/><path class="cls-20" d="M194.24,272.39c-4,8.47-2.88,17.12-.88,25.79-5.77,2.16-11.85,3.26-17.75,5-2.4-1-2.49-3-2.47-5.19.07-9.51,0-19,.05-28.52.1-13.88-4.94-25.29-16-33.88a22.4,22.4,0,0,1-2.21-2.25l-3.09-12.82c-1.39-10.08,1-12.87,10.65-12.61,1.85,1.87,1.23,4.28,1.45,6.52,1.32,13.06,3.25,25.91,10.13,37.53a45.87,45.87,0,0,0,15.58,16.25C191.46,269.28,193.47,270.17,194.24,272.39Z"/><path class="cls-24" d="M175.61,303.15c5.29-3.92,11.37-5,17.75-5l10,28.42c-10.25,2.12-20,1.91-27.39-6.93C171.12,313.92,171.11,308.92,175.61,303.15Z"/><path class="cls-49" d="M205,329.88a24.19,24.19,0,0,1,3.39,7.28l-28.11.1c-1.6,0-3.22.13-4.47-1.17-1.09-1.15-2.49-2.42-1.78-4.09s2.34-2,4.42-1.77A88.52,88.52,0,0,0,205,329.88Z"/><path class="cls-50" d="M225.16,109.29l18-2.11c1.07,1,.7,2.27.67,3.48-.17,6.35,1.38,8.89,7.3,11.25a23.67,23.67,0,0,0,17.55.36c4.75-1.78,8.2-4.82,8.23-10.46,0-3.76,2-5,5.52-4.1l12.84,1.61c11.39,5.23,14.09,15.67,15,26.56,1.08,12.62.05,25.3-1.09,37.91a14.64,14.64,0,0,1-2.61,7.91c-1.72,1.15-3.67,1.12-5.61,1.12q-40.92,0-81.84,0a12,12,0,0,1-4.68-.59,3.45,3.45,0,0,1-1.5-1.2c-1.9-6.27-2.09-12.82-2.65-19.26-.9-10.47-1.59-21,.59-31.48C212.75,121.22,216.66,113.75,225.16,109.29Z"/><path class="cls-51" d="M338.56,168.67c2.52,7.12,5.63,14.09,7.43,21.38,3.81,15.42-.83,29.56-8.35,42.84a76.56,76.56,0,0,1-14.91,19c-2.53-3.72-1.58-7.84-1.07-11.78,2-15.57,3-31.24,4.72-46.84a40.54,40.54,0,0,0,0-7.39c0-2.51-1.55-3.12-3.77-3.16a77.73,77.73,0,0,1-7.78-.21,5.45,5.45,0,0,1-5-3.85c-.35-1.9,1-2.89,2.2-3.87,6.6-5.37,14.46-8.45,22.05-12a2.2,2.2,0,0,1,2.45.37Z"/><path class="cls-52" d="M336.46,163.16c-9.33,3.92-18.6,8-26.24,14.85-.6,1.57-1.35,2.89-3.4,2.08,1.24-11.88,2.22-23.76,2.34-35.74.13-13.77-2.4-26.08-13.92-35,12.54,2.31,20.87,10.44,27.86,20.32,6.36,9,10.51,19.16,15.18,29.05C339.5,161.28,338.19,162.14,336.46,163.16Z"/><path class="cls-21" d="M282.4,107.71c-1.83.47-4.09-.3-4.25,3.16-.35,8.12-3.79,12.27-11.56,13.78a27.46,27.46,0,0,1-14-.53c-9.5-3.15-11.85-7.29-9.42-16.94,2.87-2.24,2.69-5.9,4.12-8.82,9,5.62,17.93,5.79,26.9,0C275.26,103,276.24,107.63,282.4,107.71Z"/><path class="cls-53" d="M274.15,98.41a1.75,1.75,0,0,1-.14.51c-4.53,7.3-22.53,6.92-26.76-.56.11-1,.21-2,.31-3,8.53,7.33,17.35,6.94,26.39,1C274,97,274.09,97.73,274.15,98.41Z"/><path class="cls-52" d="M225.16,109.29c-2.83,3.14-6.27,5.91-8.37,9.48-5.43,9.2-5.84,19.44-5.69,29.93s2.15,21,2.37,31.53c-2,.62-3.26-1-4.79-1.71-6-4.85-12.84-8.41-19.73-11.86-1.86-.93-3.89-1.62-5.32-3.27-1.6-1-3.79-1.77-2.23-4.41,5.29-10.91,9.73-22.28,17.3-31.94C205.58,118.25,213.58,111.09,225.16,109.29Z"/><path class="cls-54" d="M281.44,64.47c-5.37-7.73-12.48-12.59-22-13.78-2.22-.28-4.3-1.63-6.52-2-2.5-.37-3.09-5.95-6.68-2.54-1.89,1.8-4.35,2.87-5.77,5.33-1.2,2.08-3.19,3.69-4.83,5.51.14-7.84,6.84-12,10.27-17.91.81-1.43,1.77-.07,2.49.56,6.36,5.6,14.06,8.53,22,11C277.15,52.85,280.72,57.48,281.44,64.47Z"/><path class="cls-1" d="M244.24,11.54c1.61-4.82,6.1-3.77,9.26-3.64s8.33-.85,8.93,4.95C256.08,16.51,250,16.34,244.24,11.54Z"/><path class="cls-55" d="M286.82,29.47c-.5-4.61-3.66-6.26-7.67-7.42-6.28-1.83-12.51.18-18.76-.3,6.77-1.83,13.61-3,20.49-.81,4,1.28,7.4,3.46,7,8.53A.69.69,0,0,1,286.82,29.47Z"/><path class="cls-56" d="M286.82,29.47h1.09c1.33,1.7.66,3.68,1.3,6.36A6.4,6.4,0,0,1,286.82,29.47Z"/><path class="cls-57" d="M391.77,226.86c-7.49,2.9-7.62,2.89-7.48-4.52,0-2.31-1.06-4.88,1-6.94Z"/><path class="cls-58" d="M183.63,163.39c9.38,3.47,18.27,7.81,25.81,14.54a3.33,3.33,0,0,1-1.37,3.87c-3.36,1.51-6.94.69-10.42.93-2.19.15-4.35.15-4.62,3.08-.9,10.87,1.9,21.44,2.51,32.19.67,11.79,2.74,23.48,2.92,35.32-.9,2.14-2.19,1.34-3.22.25-11.59-12.21-21.34-25.47-24-42.7-.22-1.43-.33-2.82.69-4C170.94,191,178.78,177.61,183.63,163.39Z"/><path class="cls-3" d="M171.94,206.84c2,19.23,12.71,33.74,25.41,47.2,2.85,4.09,3.69,8.39,1.41,13l-4.52,5.31c-17.65-8.55-25.92-23.69-29.51-42.09-1.44-7.4-2.63-14.83-2.22-22.42Z"/><path class="cls-1" d="M305.37,79.32c1.62.24,3.88-.43,3.86,1.77,0,1.69-2.11,1.6-3.43,1.4s-3.55,1.29-3.52-1.43C302.31,79.13,304.25,79.57,305.37,79.32Z"/><path class="cls-1" d="M305,73.79c-1.68,1.13-3.17,2.53-5.12,1.5a2.06,2.06,0,0,1,.07-1.85C301.64,71.59,303.34,73.34,305,73.79Z"/><path class="cls-59" d="M50.13,240.7c3.37-1.72,6.08-.55,8.47,2a14.75,14.75,0,0,1-.07,13.25c-2.2,2.69-5,3.19-8.26,2.44Q50.19,249.52,50.13,240.7Z"/><path class="cls-60" d="M58.53,255.9q0-6.63.07-13.25C63.08,247.63,63.07,251.08,58.53,255.9Z"/><path class="cls-1" d="M479.88,203.53H464c.32-.58.68-1.69,1-1.67C469.93,202.19,475.36,199,479.88,203.53Z"/><path class="cls-61" d="M198.76,267.08l-1.41-13q-2.91-29-5.79-57.94c-.37-3.83-.79-7.69,0-11.53,1.66-1.56,3.65-1.78,5.86-1.77,40.92.1,81.84,0,122.76.06,2.63,0,5.34-.33,7.55,1.65,1.49,8.16-.77,16.13-1.26,24.19-.87,14.43-3.48,28.72-3.76,43.21a12,12,0,0,0-.81,6.85c1.81,2.78.5,5-1.35,7.05l-26.23,10a31.6,31.6,0,0,1-9.31,1.56c-16.86.13-33.73.1-50.59,0a9.29,9.29,0,0,1-5.94-1.76C220.2,263.44,210.81,260.74,198.76,267.08Z"/><path class="cls-62" d="M379.93,277.5c.82-5.2-.49-10-3-14.44,5.21-17.15,22.2-18.23,31.48-11.81A19.89,19.89,0,0,1,417,271.5c-1.29,7.68-6.18,13.28-14,15.79-8.49,2.75-15.51.08-21.5-6C380.68,280.39,380.46,278.78,379.93,277.5Z"/><path class="cls-63" d="M250.47,340.75a35.49,35.49,0,0,1-2.93-9.88c33.43,0,66.86-.05,100.28.11,2.53,0,7.3-2,7.32,2s-4.56,4.35-8.34,4.33c-25.65-.09-51.29-.05-76.93-.05-5.13,0-10.26.12-15.39,0C251.83,337.14,250.45,338,250.47,340.75Z"/><path class="cls-64" d="M320.57,265.81l1.35-7.05c6.72-.64,11.89-4.92,17.56-7.81a127,127,0,0,0,43.81-36.85c0,5.14-.09,9.21,0,13.28.07,2.51-1.93,2.58-3.4,3.36-9.92,5.27-17.68,12.47-21,23.61C345.71,256.72,333.1,261.13,320.57,265.81Z"/><path class="cls-65" d="M244.16,395.62,262,386.56c.57,1.25,1.13,2.51,1.69,3.76q1.65,4.21,3.28,8.41l-15.47,6.65Z"/><path class="cls-66" d="M244.05,318.58c-1.81-5.48-3.5-11-5.47-16.4-1-2.61.48-2.77,2.32-3.44,2.32-.85,2.81.41,3.13,2.06,1.12,5.83,2.19,11.68,3.27,17.52Z"/><path class="cls-67" d="M228.5,275.63l65.84.16c-6.1,3.21-12.34,5.32-19.48,5.12-13-.36-26-.28-39,0C231.66,281,229.11,280,228.5,275.63Z"/><path class="cls-68" d="M327.75,184.51q-62.58-.06-125.14-.08c-3.68,0-7.37-.84-11,.14.71-2.68,2.66-3.26,5.14-3.23,3.79,0,7.58-.09,11.37-.15,1.84-1.47,3.69-1,5.55,0q44.46.14,88.94.26c1.52,0,3.25.46,4.24-1.32l3.4-2.08c2.64,5.27,7.53,2.86,11.54,3.32C324.24,181.61,327.23,180.64,327.75,184.51Z"/><path class="cls-69" d="M213.64,181.15l-5.55,0,1.35-3.26q2,1.14,4,2.3A4.81,4.81,0,0,1,213.64,181.15Z"/><path class="cls-70" d="M259.69,237.55c-5.54,0-8.07-2.59-8-8.12a7.74,7.74,0,0,1,8.07-7.86c4.8,0,8,3.45,7.91,8.54C267.62,235.4,265.28,237.58,259.69,237.55Z"/><ellipse class="cls-1" cx="259.13" cy="42.86" rx="64.09" ry="38.05"/><path class="cls-71" d="M288.46,61.2a2.49,2.49,0,0,1-.13,1.57c-1.28.32-1.73,1.89-3.2,2.15-.29-1,.16-2-.37-2.82-.47-2.22.45-4.56-.28-6.13-.82-1.37-1.87-1.32-2.49-2,0-.36-.06-.77-.09-1.18s.06-1-.56-1.29c-14,2.53-28,2.5-41.91-1.56l-.05,3.28c-.78.76-2,.71-2.62,2.27-.47,2.16.1,5-.39,7.76-1.62.34-2.38-1.68-4-1.38a1,1,0,0,0-.17-.48c-.22-4.36-.43-8.72-.66-13.09a5.91,5.91,0,0,0-1.64-3.64c-3-3.56-3.37-7.27-1.12-10.62a9.11,9.11,0,0,1,10.66-3.4c1.63-2.93,3.68-5.56,7.49-6s6.67,1,9,4a7.78,7.78,0,0,1,8.16-1.7c3.54-4.11,7.89-6,13.22-4.53,5.61,1.56,8.3,5.58,8.91,11.09.67.2,1.29.36,1.89.57,4.71,1.66,6.52,6.43,3.67,10.37a11.21,11.21,0,0,0-2,6.09c-.26,3.32-.69,6.62-1.05,9.93A.74.74,0,0,0,288.46,61.2Z"/><path class="cls-71" d="M287.4,76.51c1.9,1.39,1.25,3.36,1.28,5.17,0,1-.51,2-.15,3.06,1,3.14-.25,5.46-3.21,7.2-.2,2-.74,4-2.7,5.08,0,5.34-.9,6.64-5.42,8.09-.44,0-.93,0-1,.51-.45,2.62-2.34,3.73-4.77,4.15-2.37,4.56-6.3,5.63-11,5a1.61,1.61,0,0,0-1.45-.53,9.41,9.41,0,0,1-9.64-5.46c-2.25-.56-4-1.59-4.4-4-.11-.66-.58-.81-1.18-.74-4.49-1.76-5.34-3.08-5-8-1.39-1.37-2.73-3-2.5-5.31-3-2-4.44-4.47-3-8a1.58,1.58,0,0,0,0-1.19c-.94-2.68-.37-5.25.66-7.79l-.17-1.28c.07-.32,0-.61-.36-.73l0,0a37.73,37.73,0,0,0-.83-6.78l.22-.63c1.58.61,2.12,2.11,3.28,3.34-1.47,2.16-.64,4.58-1,6.9-.94.31-.36,1.08-.53,1.63,0,.72-.36,1.5.55,2,0,1.6-.29,3.3,1.32,4.47,0,.45-.12.93.47,1.14,1.73,4.14,4.56,7,9.34,7.58.89-1.06,1.43-2.29,2.92-2.35,3.89.72,8.05-.82,11.84,1.38a4.17,4.17,0,0,1,3.45-1.07c2.23.07,4.46,0,6.68,0,.91.23,2-.09,2.89.77.92.28.52,1.59,1.43,2.24,5.09-.39,7.78-3.58,9.61-7.82l.59-1.19c.66-.51.43-1.22.44-1.88h0c.72-.23.69-.78.59-1.34A11.24,11.24,0,0,1,287.4,76.51ZM264.54,93.77a5.35,5.35,0,0,1-4-1.46c-1.69,2-3.89.88-5.76,1.32-1.47-.08-2.95-.42-4.38.15-.61,2.27.79,3.51,2.42,4.33a15.76,15.76,0,0,0,14.8,0c1.51-.78,2.55-1.93,2.12-3.78a.55.55,0,0,0-.56-.53.51.51,0,0,0-.17,0Z"/><path class="cls-72" d="M260.37,114.74c4.73.66,8.67-.43,11-5,2.43-.42,4.32-1.52,4.77-4.15.08-.49.56-.54,1-.51-.05,2.88.05,5.77-.17,8.64-.29,3.79-.56,7.56-2.7,11-4.43,7.14-16,10.92-24.54,4-3.09-2.52-5.47-5.57-5.78-9.7a62.61,62.61,0,0,0,15.1-3A1.86,1.86,0,0,0,260.37,114.74Z"/><path class="cls-73" d="M236.38,82.67c-1.61-1.17-1.31-2.87-1.32-4.48l0-2V74.58c.4-2.29-.43-4.74,1-6.9-1.16-1.23-1.7-2.74-3.28-3.33l-.31-.63c.1-.34-.1-.5-.4-.61l.27-1.27c1.62-.31,2.37,1.72,4,1.37.32.89-.29,2.19,1.22,2.65,1.45-.53,2.85-1.29,4.54-1.24,2.79.11,5.58,0,8.36.16,4.06.17,6.54,2.44,7.1,6.3.14,1-.36,2.08.4,3a9.16,9.16,0,0,1,5.31.11c.41-.42.33-1,.39-1.47.45-4.64,3-7,7.69-6.93,4.22.1,8.55-.58,12.54,1.33,1.13-1.69.37-3.45.83-5,.54.83.09,1.79.38,2.82,1.46-.26,1.91-1.83,3.19-2.15a.89.89,0,0,1,.34.3,2.2,2.2,0,0,1-.14,2.15c-1.08,2.41-1.05,5.05-1.69,7.54a.36.36,0,0,0-.11.39c-1.14,2.28-.42,4.7-.61,7.06L286,81.48h0c-.8.4-.91,1.22-1.23,1.91l-.66,1.11A8.49,8.49,0,0,1,278,86.37a35.65,35.65,0,0,0-6.93,0c-3.35-.15-5.81-1.58-7.13-4.65l-.54-4.55a5.61,5.61,0,0,0-2.87-1.71A4.52,4.52,0,0,0,257.64,77a13,13,0,0,1-1.39,5.56,8.48,8.48,0,0,1-6.42,2.78c-2.31-.08-4.63-.23-6.93-.21a9.34,9.34,0,0,1-5.38-1.4A2.41,2.41,0,0,0,236.38,82.67Zm43.82,1.65c2.76-.52,3.89-2.28,3.95-4.86,0-2.07.1-4.14.1-6.23,0-3.55-1.75-5.28-5.48-5.46-2.24-.1-4.5-.12-6.74-.11-4.49,0-6.09,1.5-6.43,5.91,0,.27,0,.54,0,.82,0,1.55-.1,3.1-.07,4.65.1,3.56,1.8,5.11,5.6,5.22A50,50,0,0,0,280.2,84.32ZM255.45,70.37c-.72-2.44-2.54-3.56-5-3.69-2.79-.13-5.6-.23-8.39-.13-3.24.12-4.86,1.82-5,4.94-.1,2.3-.15,4.59-.11,6.88,0,2.62.75,3.43,3.55,4.43,2.65.93,5.37.44,8.06.46a6.64,6.64,0,0,0,2.59,0,.84.84,0,0,0,.91-.31A3.88,3.88,0,0,0,255.28,79a16.91,16.91,0,0,0-.16-5.45c.13-.52.75-.86.56-1.49l0-.91a.57.57,0,0,0-.23-.79Z"/><path class="cls-74" d="M260.37,114.74a1.89,1.89,0,0,1-1.28,1.29A63.51,63.51,0,0,1,244,119c-.82-.89-.45-2-.45-3,0-4,.09-8,.15-12.07.6-.06,1.07.1,1.18.74.39,2.42,2.15,3.45,4.4,4a9.41,9.41,0,0,0,9.64,5.46A1.64,1.64,0,0,1,260.37,114.74Z"/><path class="cls-75" d="M288.51,65.22a2.17,2.17,0,0,0,.14-2.15c2.91-.79,5,.35,6.62,2.8.36,3.59-.41,6.84-3.43,9.19a13.06,13.06,0,0,1-4.65.1c-.69-.55-.25-1.36-.48-2a.36.36,0,0,1,.11-.39l2.71,0A4.36,4.36,0,0,0,291.28,71l.07-3.94A3.06,3.06,0,0,0,288.51,65.22Z"/><path class="cls-75" d="M232.38,61.85l-.28,1.27.39.6.3.63-.22.62c-1,.1-2.12-.26-3.09.33-1.32,3.11-1.07,4.6,1.19,6.57l2.71-.12,0,0a.54.54,0,0,0,.31.72l.05,0,.17,1.27c-3.44,1-6.18-.51-6.93-3.9-.27-1.2-.2-2.47-.71-3.26a7.47,7.47,0,0,1,1.54-3.84c1.33-.78,2.66-1.68,4.41-1.42A1.05,1.05,0,0,1,232.38,61.85Z"/><path class="cls-76" d="M286.71,73.15c.23.66-.21,1.46.48,2l.21,1.35a11.38,11.38,0,0,0-.76,3.64,1,1,0,0,1-.53.06C286.29,77.85,285.57,75.42,286.71,73.15Z"/><path class="cls-73" d="M288.46,61.2a.73.73,0,0,1,.22-.86A.68.68,0,0,1,288.46,61.2Z"/><path class="cls-77" d="M284.76,62.1c-.47,1.58.28,3.34-.84,5-4-1.91-8.31-1.23-12.54-1.33-4.7-.12-7.24,2.29-7.69,6.93-.05.51,0,1-.38,1.47a9.2,9.2,0,0,0-5.32-.11c-.75-.92-.25-2-.4-3-.56-3.86-3-6.13-7.1-6.3-2.78-.12-5.57-.05-8.35-.16-1.7-.07-3.1.69-4.55,1.24-1.5-.45-.88-1.74-1.22-2.65.49-2.76-.08-5.58.39-7.76.64-1.55,1.84-1.5,2.62-2.27l.05-3.28C253.35,54,267.29,54,281.34,51.47c.62.25.52.8.56,1.3s.06.82.09,1.17c.62.72,1.68.66,2.49,2C285.21,57.54,284.29,59.88,284.76,62.1Z"/><path class="cls-78" d="M269.79,94.36c.43,1.86-.6,3-2.12,3.78a15.74,15.74,0,0,1-14.79,0c-1.64-.82-3-2.06-2.43-4.33,1.43-.57,2.91-.23,4.38-.15l0,1.15c2.89,2.15,6.07,1.5,9.21.8.21,0,.32-.48.47-.74l0-1.08,4.52.08A.74.74,0,0,0,269.79,94.36Z"/><path class="cls-79" d="M249.82,85.39a8.52,8.52,0,0,0,6.43-2.78c.24.89-.46,1.57-.57,2.37-.18,1.35.3,2.24,1.85,2.33,1.5,1.2,3.2.44,4.48.59,2.87-1.27,1.89-3.12,1.35-4.9.05-.47,0-1,.57-1.23,1.31,3.06,3.78,4.49,7.13,4.64v3c-2.23,0-4.46,0-6.69,0a4.16,4.16,0,0,0-3.45,1.06c-3.77-2.19-7.93-.67-11.83-1.38C249.27,87.8,250.08,86.69,249.82,85.39Z"/><path class="cls-80" d="M271.06,89.38V86.43a34.89,34.89,0,0,1,6.93,0,8.61,8.61,0,0,0,6.15-1.87l.87.06c-1.83,4.24-4.54,7.44-9.63,7.82-.91-.66-.51-2-1.43-2.25C273,89.28,272,89.62,271.06,89.38Z"/><path class="cls-81" d="M249.82,85.39c.25,1.31-.55,2.41-.71,3.64-1.49.07-2,1.28-2.92,2.36-4.78-.61-7.61-3.44-9.34-7.58l.68,0a9.18,9.18,0,0,0,5.38,1.39C245.2,85.16,247.51,85.31,249.82,85.39Z"/><path class="cls-74" d="M233.41,71.76l-2.72.12c-2.26-2-2.51-3.46-1.19-6.57,1-.59,2.06-.23,3.09-.33A37.72,37.72,0,0,1,233.41,71.76Z"/><path class="cls-76" d="M264.54,93.77l0,1.07-9.69-.06,0-1.15c1.87-.45,4.06.67,5.76-1.32A5.35,5.35,0,0,0,264.54,93.77Z"/><path class="cls-82" d="M284.81,83.41c.32-.69.43-1.51,1.23-1.91,0,.66.23,1.37-.44,1.88Z"/><path class="cls-82" d="M235,76.23l0,2c-.9-.46-.6-1.25-.55-2l.26,0Z"/><path class="cls-76" d="M235,76.23l-.26,0-.26,0c.17-.54-.41-1.32.53-1.63Z"/><path class="cls-83" d="M237.52,83.77l-.68,0c-.59-.21-.49-.69-.48-1.14A2.55,2.55,0,0,1,237.52,83.77Z"/><path class="cls-83" d="M284.81,83.41l.79,0-.59,1.2-.87,0C284.36,84.15,284.59,83.78,284.81,83.41Z"/><path class="cls-82" d="M286.1,80.21a1,1,0,0,0,.53-.06c.09.56.14,1.11-.59,1.34Z"/><path class="cls-74" d="M233.73,72.52a.55.55,0,0,1-.38-.69l0,0C233.77,71.9,233.8,72.18,233.73,72.52Z"/><path class="cls-76" d="M269.79,94.36a.75.75,0,0,1-.72-.5.56.56,0,0,1,.69.34A.45.45,0,0,1,269.79,94.36Z"/><path class="cls-78" d="M255.13,73.57a16.84,16.84,0,0,1,.16,5.44A3.88,3.88,0,0,1,252.07,83a.76.76,0,0,0-.91.32,6.64,6.64,0,0,1-2.59,0,3.32,3.32,0,0,0-1.29-2.36c-1,.06-1.7-.86-2.66-.68-2,0-2.83,1.64-4.1,2.6-2.81-1-3.52-1.82-3.56-4.43,0-2.3,0-4.6.11-6.88.12-3.12,1.75-4.82,5-4.94,2.79-.11,5.6,0,8.39.13a5,5,0,0,1,5,3.69.62.62,0,0,0,.24.79l0,.92c-1.06.46-2.08,0-3.12-.14-1.39-.19-1.82,0-3,1.38A6.9,6.9,0,0,1,255.13,73.57Zm-2,3.21a1.32,1.32,0,0,0-1.88,1c-.22.93.31,1.51,1.36,1.77.54-.18,1.11-.38,1.21-1.11.64-.9,0-1.31-.69-1.7Z"/><path class="cls-79" d="M265.59,73.57c.34-4.41,2-5.9,6.43-5.91,2.25,0,4.5,0,6.74.11,3.73.17,5.47,1.91,5.48,5.46,0,2.08-.05,4.15-.1,6.24,0,2.58-1.19,4.34-3.95,4.86.17-1.47-.68-2.31-2-3-1.21,0-2.49-.12-3.76,0-2.09.13-2.79.8-3.31,2.93-3.8-.11-5.5-1.67-5.6-5.22,0-1.55.05-3.1.07-4.66l3.81-.56a7,7,0,0,0,1.49.47c.55,0,1.05.86,1.67.15C270.61,72.74,269.58,72.61,265.59,73.57Zm4.76,4.51c-1.82-1.74-1.91-1.73-3.31.35.35.75.77,1.44,1.8,1.44A2,2,0,0,0,270.35,78.08Z"/><path class="cls-84" d="M263.93,81.79c-.53.26-.52.76-.57,1.23l-5.83-.1c-1.3,1.7,0,3,0,4.4-1.54-.1-2-1-1.85-2.33.11-.8.81-1.49.57-2.37a13.17,13.17,0,0,0,1.39-5.56,4.48,4.48,0,0,1,2.89-1.53,5.54,5.54,0,0,1,2.87,1.71C263.58,78.75,263.75,80.27,263.93,81.79Z"/><path class="cls-74" d="M288.51,65.22a3.09,3.09,0,0,1,2.85,1.85L291.3,71a4.37,4.37,0,0,1-1.75,1.79l-2.71,0C287.46,70.27,287.44,67.63,288.51,65.22Z"/><path class="cls-81" d="M271.13,84.26c.52-2.12,1.21-2.8,3.3-2.93,1.27-.07,2.56,0,3.77,0,1.3.65,2.15,1.49,2,2.95A49.87,49.87,0,0,1,271.13,84.26Z"/><path class="cls-76" d="M240.51,82.82c1.28-1,2.13-2.56,4.11-2.6,1-.18,1.68.74,2.65.68a3.36,3.36,0,0,1,1.3,2.36C245.88,83.26,243.16,83.75,240.51,82.82Z"/><path class="cls-82" d="M265.59,73.57c4-1,5-.83,7,.86-.62.72-1.12-.1-1.67-.15a6.46,6.46,0,0,1-1.49-.47l-3.82.58Z"/><path class="cls-82" d="M255.13,73.57a6.94,6.94,0,0,0-5.53-.25c1.15-1.36,1.58-1.57,3-1.38,1,.14,2.06.6,3.12.14C255.88,72.71,255.26,73.05,255.13,73.57Z"/><path class="cls-82" d="M255.69,71.16a.64.64,0,0,1-.24-.79.57.57,0,0,1,.25.78Z"/><path class="cls-74" d="M232.49,63.72l-.4-.61C232.4,63.23,232.6,63.4,232.49,63.72Z"/><path class="cls-76" d="M251.15,83.28a.76.76,0,0,1,.91-.32A.84.84,0,0,1,251.15,83.28Z"/><path class="cls-83" d="M254.88,94.81l9.68.19c-.11.47-2.17,1.11-4.76,1.35C259,96.43,255.38,96,254.88,94.81Z"/><path class="cls-85" d="M257.52,87.32c0-1.38-1.29-2.7,0-4.4l5.82.1c.54,1.77,1.52,3.63-1.35,4.9C260.73,87.76,259,88.52,257.52,87.32Z"/><path class="cls-86" d="M253.77,78.48c-.1.73-.67.93-1.21,1.11-1-.26-1.58-.82-1.36-1.77a1.31,1.31,0,0,1,1.88-1c-.16.44-.62.79-.4,1.34A1.4,1.4,0,0,0,253.77,78.48Z"/><path class="cls-86" d="M270,78.7c-.11.77-.74,1-1.36,1.17-1.14-.28-1.76-.86-1.51-1.86a1.46,1.46,0,0,1,2.09-1.08c-.17.45.07.83.32,1.4C269.84,78.67,269.52,78.69,270,78.7Z"/><path class="cls-82" d="M253.77,78.48a1.4,1.4,0,0,1-1.09-.36c-.22-.55.24-.9.4-1.34C253.78,77.17,254.41,77.58,253.77,78.48Z"/><path class="cls-82" d="M270.07,78.74a1.85,1.85,0,0,1-1.3-.37c-.27-.54.28-.89.47-1.33C270.08,77.43,270.84,77.84,270.07,78.74Z"/></g></g></svg>