<svg xmlns="http://www.w3.org/2000/svg" viewBox="0 0 593.37 364.04"><defs><style>.cls-1{fill:#f5dd07;stroke:#221f1f;stroke-miterlimit:10;}.cls-2{fill:#222832;}.cls-3{fill:#b5b5b5;}.cls-4{fill:#322c3a;}.cls-5{fill:#60c1b3;}.cls-6{fill:#83818a;}.cls-7{fill:#928f99;}.cls-8{fill:#e68e7a;}.cls-9{fill:#c5203d;}</style></defs><title>topRight</title><g id="Layer_2" data-name="Layer 2"><g id="Layer_1-2" data-name="Layer 1"><path class="cls-1" d="M91.15,106.38c-26.84,17.46-99.3,41.55-82.43-14,9-29.52-12.07-59.8,14.77-77.27s63.74-11.18,82.42,14S118,88.91,91.15,106.38Z"/><path class="cls-1" d="M431.89,122.4c-21.05-23.69.67-47.85,7.77-77.5,10.5-43.82,63-15.4,84,8.29s17.58,58.38-7.77,77.49S453,146.09,431.89,122.4Z"/><path class="cls-2" d="M0,0S27,4.63,39.35,25.63C53.1,48.9,23.12,69.2,21.61,111c-1,26.65,8.84,65.41,38.53,83.78,24.33,15.06,54.75,11.91,94,7.84,43.88-4.54,47.17-13.45,64.66-8.94,46.45,12,68,66.77,69.67,95.48,2.34,39.7,84.68,138,152.43,15.27,5.57.5,34,2.51,58.4-16.29a71.9,71.9,0,0,0,26-39.29c1.29-5.15,6.93-24.64-2.06-55.39-13.69-46.83-41.79-54.92-40.75-78.89.64-14.87,12.49-35.41,64-58.93l46.85-17.43V0Z"/><path class="cls-3" d="M69.22,28.89V181.73a1.5,1.5,0,0,0,3,0V28.89a1.5,1.5,0,0,0-3,0Z"/><path class="cls-3" d="M86.26,29.27l6.85,6.25c1.42,1.3,3.55-.82,2.12-2.12l-6.85-6.25c-1.43-1.3-3.55.81-2.12,2.12Z"/><path class="cls-3" d="M92.89,26.64l-5.83,6.72c-1.26,1.45.85,3.58,2.12,2.12L95,28.76c1.26-1.45-.86-3.58-2.13-2.12Z"/><path class="cls-4" d="M87.53,46.48c5-2.37,11-.12,16.3-1.73,1.85-.57,1.06-3.46-.79-2.9-5.63,1.72-11.55-.54-17,2-1.74.82-.22,3.41,1.52,2.59Z"/><path class="cls-5" d="M87.69,46.69h17a1.5,1.5,0,0,0,0-3h-17a1.5,1.5,0,0,0,0,3Z"/><path class="cls-6" d="M110.47,46.82h13.4a1.5,1.5,0,0,0,0-3h-13.4a1.5,1.5,0,0,0,0,3Z"/><path class="cls-7" d="M87.24,60.14h87.55a1.5,1.5,0,0,0,0-3H87.24a1.5,1.5,0,0,0,0,3Z"/><path class="cls-8" d="M88.14,74.81h28.58a1.5,1.5,0,0,0,0-3H88.14a1.5,1.5,0,0,0,0,3Z"/><path class="cls-7" d="M126.1,74.81h33.06a1.5,1.5,0,0,0,0-3H126.1a1.5,1.5,0,0,0,0,3Z"/><path class="cls-8" d="M114.09,91.12h16.48a1.5,1.5,0,0,0,0-3H114.09a1.5,1.5,0,0,0,0,3Z"/><path class="cls-7" d="M138.16,91.52h17a1.5,1.5,0,0,0,0-3h-17a1.5,1.5,0,0,0,0,3Z"/><path class="cls-7" d="M121.19,106.2H144a1.5,1.5,0,0,0,0-3H121.19a1.5,1.5,0,0,0,0,3Z"/><path class="cls-7" d="M152.9,106.2h11.62a1.5,1.5,0,0,0,0-3H152.9a1.5,1.5,0,0,0,0,3Z"/><path class="cls-7" d="M114.41,122.91q35.39-.19,70.78,0v-3h-3.36v3h3.36v-3H173.9a1.5,1.5,0,0,0,0,3h11.29a1.5,1.5,0,0,0,0-3h-3.36a1.5,1.5,0,0,0,0,3h3.36a1.5,1.5,0,0,0,0-3q-35.38-.19-70.78,0a1.5,1.5,0,0,0,0,3Z"/><path class="cls-5" d="M193.55,122.5h15.63a1.5,1.5,0,0,0,0-3H193.55a1.5,1.5,0,0,0,0,3Z"/><path class="cls-5" d="M87.69,142.06H98.86a1.5,1.5,0,0,0,0-3H87.69a1.5,1.5,0,0,0,0,3Z"/><path class="cls-7" d="M105.11,142.06h52.71a1.5,1.5,0,0,0,0-3H105.11a1.5,1.5,0,0,0,0,3Z"/><path class="cls-7" d="M87.69,162h30.37a1.5,1.5,0,0,0,0-3H87.69a1.5,1.5,0,0,0,0,3Z"/><path class="cls-9" d="M124.76,162H131a1.5,1.5,0,0,0,0-3h-6.26a1.5,1.5,0,0,0,0,3Z"/><path class="cls-7" d="M138.61,161.63H173.9a1.5,1.5,0,0,0,0-3H138.61a1.5,1.5,0,0,0,0,3Z"/><path class="cls-7" d="M121,103.2H114a1.5,1.5,0,0,0,0,3H121a1.5,1.5,0,0,0,0-3Z"/><path class="cls-7" d="M160.27,91.52h86.66a1.5,1.5,0,0,0,0-3H160.27a1.5,1.5,0,0,0,0,3Z"/><path class="cls-7" d="M171.44,106.2h53.82a1.5,1.5,0,0,0,0-3H171.44a1.5,1.5,0,0,0,0,3Z"/><path class="cls-5" d="M163.4,74.61h22.78a1.5,1.5,0,0,0,0-3H163.4a1.5,1.5,0,0,0,0,3Z"/><path class="cls-7" d="M191.32,74.61h74.82a1.5,1.5,0,0,0,0-3H191.32a1.5,1.5,0,0,0,0,3Z"/><path class="cls-7" d="M254.75,91.52h31.49a1.5,1.5,0,0,0,0-3H254.75a1.5,1.5,0,0,0,0,3Z"/><path class="cls-9" d="M162.73,141.86h40a1.5,1.5,0,0,0,0-3h-40a1.5,1.5,0,0,0,0,3Z"/><path class="cls-7" d="M209.18,141.93H260.4a1.5,1.5,0,0,0,0-3H209.18a1.5,1.5,0,0,0,0,3Z"/></g></g></svg>